<svg xmlns="http://www.w3.org/2000/svg" height="256" width="256"><path d="M128 16a112 112 0 0 0-88.172 43.152c13.66 3.65 23.33 6.786 26.226 7.759.045-1.777.34-17.667.34-17.667s.037-.364.231-.554c.25-.244.611-.17.611-.17 3.594.52 80.285 11.888 112.612 30.726 3.992 2.335 5.962 4.818 8.424 7.336 8.936 9.241 20.744 47.67 22.012 55.594.05.312-.335.65-.5.778h-.003a48.327 48.327 0 0 1-2.92 2.127c-7.648 5.132-25.27 17.467-47.878 15.453-20.308-1.796-46.84-13.445-78.826-34.52 3.145 7.363 6.244 14.75 9.344 22.131 4.632 2.406 49.34 25.188 71.406 24.743 17.773-.37 36.78-9.04 44.385-13.616 0 0 1.67-1.007 2.398-.445.795.615.575 1.556.387 2.518-.468 2.183-1.533 6.165-2.257 8.056l-.611 1.54c-.87 2.333-1.706 4.5-3.318 5.835-4.48 4.074-11.629 7.314-22.832 12.183-17.317 7.575-45.412 12.393-71.497 12.227-9.342-.208-18.368-1.245-26.294-2.17-16.265-1.837-29.5-3.327-37.57 2.51A112 112 0 0 0 128 240a112 112 0 0 0 112-112A112 112 0 0 0 128 16zm24.982 64.986c-8.767-.28-17.126 2.814-23.535 8.797-6.405 5.964-10.071 14.094-10.396 22.855-.606 18.072 13.584 33.3 31.64 33.966 8.807.296 17.148-2.8 23.557-8.819 6.39-5.945 10.055-14.075 10.396-22.836.62-18.057-13.586-33.317-31.662-33.963zm-.275 9.666c12.633.448 22.523 11.06 22.098 23.69-.195 6.09-2.764 11.736-7.227 15.923-4.47 4.167-10.312 6.335-16.441 6.15-12.604-.466-22.495-11.09-22.07-23.723.186-6.113 2.806-11.76 7.25-15.927 4.443-4.168 10.257-6.334 16.39-6.113zm3.744 11.484c-5.613 0-10.147 3.021-10.147 6.78 0 3.722 4.534 6.76 10.147 6.76 5.61 0 10.16-3.038 10.16-6.76 0-3.759-4.547-6.78-10.16-6.78z" fill="#73ba25"/></svg>