<?xml version="1.0" encoding="utf-8"?>
<svg xmlns="http://www.w3.org/2000/svg" viewBox="0 0 24 24" version="1.1">
  <path fill="none" d="M0 0h24v24H0z" />
  <path d="M 12,2.0000003 A 9.9999998,9.9999998 0 0 0 1.9999998,12 9.9999998,9.9999998 0 0 0 12,22 9.9999998,9.9999998 0 0 0 22,12 9.9999998,9.9999998 0 0 0 12,2.0000003 Z m 0,1.25 A 8.7499034,8.7499697 0 0 1 20.75,12 8.7499034,8.7499697 0 0 1 12,20.75 8.7499034,8.7499697 0 0 1 5.4140005,17.744173 c 0.6304555,-0.455991 1.6643055,-0.339546 2.9350282,-0.196082 0.6191954,0.07236 1.3244045,0.153282 2.0542923,0.169527 2.037846,0.013 4.232757,-0.3634 5.58563,-0.9552 0.875244,-0.3804 1.433787,-0.633618 1.783753,-0.951845 0.125868,-0.104291 0.191242,-0.273582 0.259247,-0.455773 l 0.04776,-0.120391 c 0.05659,-0.147691 0.139691,-0.458891 0.176239,-0.629427 0.01472,-0.07509 0.03194,-0.148682 -0.03021,-0.196691 -0.05681,-0.04391 -0.187379,0.03482 -0.187379,0.03482 -0.594075,0.357573 -2.079093,1.034773 -3.467559,1.063691 -1.723867,0.03482 -5.2165856,-1.745027 -5.5784611,-1.932982 -0.2422,-0.576709 -0.4842927,-1.153727 -0.72998,-1.728972 2.4988381,1.646463 4.5715901,2.556636 6.1581421,2.696991 1.766261,0.157336 3.142959,-0.8065 3.740539,-1.207428 0.07823,-0.052 0.156394,-0.1102 0.228118,-0.166172 h 3.57e-4 c 0.01284,-0.01 0.0428,-0.03636 0.03891,-0.06073 -0.09907,-0.6191 -1.0214,-3.6212362 -1.719512,-4.3432635 C 16.516564,8.567582 16.362539,8.373582 16.050654,8.1911274 13.525148,6.7194456 7.533706,5.8312729 7.2530023,5.7906184 c 0,0 -0.028227,-0.00545 -0.047764,0.013273 -0.015164,0.014818 -0.018155,0.043364 -0.018155,0.043364 0,0 -0.023009,1.2413545 -0.026555,1.3801545 -0.2262318,-0.076 -0.9816991,-0.3209455 -2.04895,-0.6060818 A 8.7499034,8.7499697 0 0 1 12,3.2500003 Z m 1.823731,5.0759908 c 0.04253,-7.091e-4 0.08522,-3.182e-4 0.128021,9.091e-4 1.412227,0.050545 2.522075,1.2426816 2.473601,2.6533548 -0.02664,0.684427 -0.313051,1.319609 -0.812224,1.784054 -0.50068,0.470246 -1.15238,0.712028 -1.840363,0.688937 -1.410707,-0.052 -2.519238,-1.241718 -2.471924,-2.653655 0.02536,-0.684427 0.311778,-1.3195363 0.812226,-1.7854273 0.469384,-0.4382364 1.072765,-0.6780546 1.710663,-0.6883273 z m 0.01694,0.7551547 c -0.445955,0.0055 -0.865498,0.173273 -1.190948,0.478518 -0.34716,0.325591 -0.551786,0.7667452 -0.566254,1.2443542 -0.03324,0.986919 0.739429,1.81701 1.72409,1.853328 0.47886,0.01445 0.935297,-0.154909 1.284484,-0.4805 0.348681,-0.327109 0.549341,-0.768073 0.564576,-1.243891 0.03324,-0.9866642 -0.739432,-1.8158822 -1.72638,-1.8508912 -0.02994,-9.09e-4 -0.05984,-9.09e-4 -0.08956,-9.09e-4 z m 0.382079,0.898282 c 0.438506,0 0.793763,0.2360272 0.793763,0.5296362 0,0.290818 -0.355504,0.528109 -0.793763,0.528109 -0.438516,0 -0.792694,-0.237273 -0.792694,-0.528109 0,-0.293609 0.354178,-0.5296362 0.792694,-0.5296362 z" />
</svg>
