<?xml version="1.0" encoding="utf-8"?>
<svg xmlns="http://www.w3.org/2000/svg" viewBox="0 0 24 24" version="1.1">
  <path fill="none" d="M0 0h24v24H0z" />
  <path d="M 4.8516608,6.2570248 C 2.9809753,7.3788156 1.8576947,8.7475309 1.2421824,10.22779 c -0.1987129,0.477889 -0.45201767,1.563122 -0.1955087,2.582785 0.112025,0.445317 0.3178019,0.893484 0.5967455,1.294178 0.6304405,0.90561 1.6883467,1.50624 2.8274428,1.607955 1.6084004,0.143621 2.826877,-0.578372 3.2594859,-1.931192 0.2983949,-0.933117 -2.22e-5,-2.302527 -1.1416475,-3.001312 -0.9287803,-0.568503 -1.9274811,-0.439558 -2.5066027,-0.05602 -0.5026965,0.332923 -0.788173,0.850843 -0.7821864,1.419509 0.010619,1.008707 0.8805498,1.545234 1.5053149,1.54649 0.1814957,3.65e-4 0.3628447,-0.03476 0.5693955,-0.09839 0.3342981,-0.102987 0.4816348,-0.300792 0.4795088,-0.54216 -4.066e-4,-0.04617 -0.00957,-0.09219 -0.019688,-0.140064 -0.053975,-0.255528 -0.3906358,-0.427095 -0.5877294,-0.362315 -0.1453503,0.04777 -0.2753568,0.0858 -0.4270822,0.08586 -0.073313,2.7e-5 -0.4499162,-0.135941 -0.4327951,-0.506276 0.018938,-0.409635 0.4453238,-0.669638 0.9220955,-0.618384 0.5732209,0.06162 0.934876,0.32545 1.1940921,0.851018 0.2408949,0.488422 0.1780225,1.089682 -0.1622975,1.529654 C 6.0032241,14.325454 5.4015591,14.511787 4.6020331,14.424543 3.7954857,14.336533 3.1141505,13.87112 2.732149,13.148852 2.3586255,12.442614 2.3383101,11.605667 2.6792509,10.962332 3.4958527,9.421454 5.0376051,9.437137 5.8829844,9.5835535 c 1.2511173,0.2166888 2.6683723,1.3732425 3.1790871,2.7036115 0.1021848,0.266183 0.1414013,0.498356 0.2138426,0.764909 0.474073,0.233271 1.0317619,0.49828 1.4818599,0.72818 -0.04433,-0.242686 -0.04678,-0.274104 -0.07134,-0.524305 -0.108328,-1.103438 0.17084,-1.973295 1.102424,-2.19358 0.914081,-0.216146 2.012145,-0.06976 3.039632,1.118648 0.531206,0.614402 0.975729,1.085885 0.975729,1.085885 l 1.900089,0.870544 C 17.125943,13.305163 16.61296,12.3898 16.750552,11.492801 c 0.140813,-0.917998 0.8809,-0.834223 1.889569,-0.719367 0.329374,0.0375 0.70401,0.08601 1.092206,0.09018 1.083603,0.01165 2.250661,-0.193907 2.970353,-0.507928 0.465126,-0.202947 0.768833,-0.330297 0.948542,-0.5062773 0.06166,-0.060377 0.118984,-0.1890204 0.163054,-0.3062679 0.02957,-0.078682 0.07939,-0.2430452 0.09377,-0.3346658 0.01816,-0.1157134 -0.01316,-0.1448766 -0.11556,-0.086119 -0.319846,0.1835188 -1.1056,0.5505397 -1.843935,0.5656392 C 21.031878,9.7067422 19.174534,8.759908 18.982104,8.6599597 18.853313,8.3532922 18.724587,8.0466143 18.59394,7.7407264 19.922716,8.6162335 21.024185,9.1072479 21.868454,9.1746597 22.694545,9.2406201 23.363245,8.9172947 24,8.4210515 23.947324,8.0918441 23.45709,6.4859147 23.085387,6.1024342 22.983575,5.9973958 22.901388,5.894601 22.735395,5.7978288 21.392609,5.0150001 18.205822,4.546794 18.057153,4.5213794 c -0.02741,-0.00469 -0.02267,0.019672 -0.03499,0.030367 -0.01166,0.010124 -0.01224,0.660139 -0.01413,0.7339461 C 17.682636,5.1763887 15.316543,4.4292931 13.099826,4.3353433 12.621897,4.3150875 11.274299,4.2722705 10.950222,4.2965521 9.5919042,4.3983244 7.5888672,4.6156088 4.8516608,6.2570248 Z M 21.619301,5.8700661 c 0.750997,0.025924 1.34226,0.6608452 1.315365,1.4109415 C 22.921616,7.6449959 22.767633,7.9820962 22.502774,8.229696 22.235952,8.4791307 21.889837,8.6090256 21.524026,8.59592 20.773842,8.569044 20.183532,7.9357513 20.209562,7.1849784 20.222182,6.8210007 20.375662,6.4834642 20.641606,6.235531 20.90802,5.9871596 21.255147,5.8574959 21.619301,5.8700661 Z m -0.01142,0.4013835 c -0.254943,0 -0.496305,0.080842 -0.6809,0.2539643 -0.184609,0.1731363 -0.292879,0.4077216 -0.301153,0.6616677 -0.0171,0.5248249 0.393179,0.9678335 0.916833,0.9856637 0.254591,0.00867 0.497598,-0.08209 0.683005,-0.2554724 0.185688,-0.1736461 0.291712,-0.4086567 0.3001,-0.6616679 0.01739,-0.5246716 -0.392738,-0.9841554 -0.917884,-0.9841554 z m 0.155536,0.4772732 c 0.233177,0 0.422125,0.1254945 0.422125,0.281624 0,0.1546419 -0.189078,0.2808649 -0.422125,0.2808649 -0.233187,0 -0.421675,-0.1262127 -0.421675,-0.2808649 0,-0.1561295 0.188488,-0.281624 0.421675,-0.281624 z m -0.702541,8.3174812 v 4.62e-4 c -0.177719,0 -0.311972,0.131794 -0.311972,0.306411 v 3.028213 c 0,0.173806 0.1311,0.304605 0.304909,0.304605 h 2.413282 c 0.185821,0 0.320088,-0.128377 0.320088,-0.304605 v -0.08023 c 0,-0.176915 -0.134267,-0.306113 -0.320088,-0.306113 h -1.976429 v -0.770912 h 1.448209 c 0.185414,0 0.320087,-0.130173 0.320087,-0.306421 v -0.07992 c 0,-0.177048 -0.134673,-0.305508 -0.320087,-0.305508 h -1.448209 v -0.794057 h 1.875894 c 0.185145,0 0.320088,-0.127659 0.320088,-0.305518 v -0.08013 c 0,-0.177049 -0.134943,-0.306257 -0.320088,-0.306257 z m -10.753295,4.62e-4 c -0.5988801,0 -0.9284049,0.50638 -0.9284049,0.856414 v 0.449326 c 0,0.51549 0.4212214,0.834941 0.8117899,0.834941 h 1.370967 c 0.172725,0 0.208884,0.113019 0.208884,0.208433 v 0.290026 c 0,0.03078 -0.0063,0.309274 -0.208884,0.309274 H 9.6920517 c -0.1858206,0 -0.320088,0.129198 -0.320088,0.306113 v 0.08023 c 0,0.176238 0.1342674,0.304616 0.320088,0.304616 h 1.9716203 c 0.515352,0 0.847856,-0.35854 0.847856,-0.913981 v -0.484793 c 0,-0.521554 -0.374687,-0.754681 -0.746721,-0.754681 h -1.349026 c -0.203087,0 -0.295143,-0.152446 -0.295143,-0.26013 v -0.26764 c 0,-0.168554 0.112695,-0.266286 0.309719,-0.266286 h 1.493293 c 0.183119,0 0.320839,-0.131579 0.320839,-0.305519 v -0.08013 c 0,-0.174617 -0.140122,-0.306257 -0.327152,-0.306257 z m 3.159251,0 c -0.179612,0 -0.32084,0.141787 -0.32084,0.32099 v 2.382621 c 0,0.554754 0.436486,0.957112 1.037806,0.957112 h 1.114447 c 0.600503,0 1.036754,-0.402225 1.036754,-0.957112 v -2.382621 c 0,-0.179203 -0.140746,-0.32099 -0.320089,-0.32099 h -0.101436 c -0.177042,0 -0.319637,0.143941 -0.319637,0.32099 v 2.295764 c 0,0.183923 -0.150024,0.33166 -0.331659,0.33166 h -1.042163 c -0.182305,0 -0.331659,-0.147737 -0.331659,-0.33166 v -2.295764 c 0,-0.177049 -0.143778,-0.32099 -0.320689,-0.32099 z m 4.441706,0 c -0.598611,0 -0.929006,0.50638 -0.929006,0.856414 v 0.449326 c 0,0.51549 0.422004,0.834941 0.812843,0.834941 h 1.370667 c 0.173002,0 0.209334,0.113019 0.209334,0.208433 v 0.290026 c 0,0.03078 -0.0063,0.309274 -0.209334,0.309274 h -1.870785 c -0.185006,0 -0.320088,0.129198 -0.320088,0.306113 v 0.08023 c 0,0.176238 0.135082,0.304616 0.320088,0.304616 h 1.972221 c 0.515491,0 0.849509,-0.35854 0.849509,-0.913981 v -0.484793 c 0,-0.521554 -0.37573,-0.754681 -0.747773,-0.754681 h -1.349027 c -0.203632,0 -0.295442,-0.152446 -0.295442,-0.26013 v -0.26764 c 0,-0.168554 0.112703,-0.266286 0.309719,-0.266286 h 1.494044 c 0.182712,0 0.320087,-0.131579 0.320087,-0.305519 v -0.08013 c 0,-0.174617 -0.140066,-0.306257 -0.327903,-0.306257 H 17.908686 Z M 2.3438495,16.647915 v 2.896121 c 0,0.0908 0.071765,0.162295 0.1624483,0.162295 h 0.063117 c 0.090007,0 0.1640823,-0.07233 0.1632004,-0.162295 L 2.733,18.723 l 0.8067514,-5.1e-5 c 0.3770438,-2.4e-5 0.611473,-0.21544 0.611473,-0.561576 v -1.105587 c 0,-0.340873 -0.2405956,-0.561049 -0.611473,-0.560981 l -1.06952,1.95e-4 c -0.090167,1.6e-5 -0.1263819,0.07596 -0.1263819,0.152915 z m 4.7317457,-0.140188 c -0.075792,-0.0027 -0.1311917,0.0592 -0.1311917,0.140053 v 1.899644 c 0,0.08998 0.071119,0.162296 0.16275,0.162296 h 0.062819 c 0.090007,0 0.1633501,-0.07305 0.1633501,-0.162296 v -1.437247 c 0,-0.134677 0.1099709,-0.245244 0.2446487,-0.245244 h 0.5396409 c 0.1350831,0 0.2451002,0.110567 0.2451002,0.245244 v 1.437247 c 0,0.08998 0.071478,0.162296 0.1622985,0.162296 h 0.063414 c 0.090007,0 0.1631994,-0.07305 0.1631994,-0.162296 v -1.491941 c 0,-0.340883 -0.2396041,-0.56098 -0.6119234,-0.56098 -0.6280842,0 -0.7191073,0.02529 -1.0641057,0.01322 z m -1.8321651,8.4e-5 c -0.3135007,-1.4e-5 -0.547906,0.235805 -0.547906,0.525821 v 1.133226 c 0,0.293915 0.2386048,0.543253 0.5201047,0.543253 h 0.7620501 c 0.094193,0 0.1622975,-0.06535 0.1622975,-0.154037 v -0.04986 c 0,-0.08916 -0.068103,-0.153134 -0.1622975,-0.153134 H 5.3516291 c -0.1754318,0 -0.2680927,-0.08628 -0.2680927,-0.250209 v -0.33165 h 1.1294745 c 0.1816388,0 0.2889801,-0.110741 0.2889801,-0.298449 v -0.439406 c 0,-0.290006 -0.2458019,-0.525511 -0.5470042,-0.525524 z m -4.69492113,3.07e-4 c -0.30241703,1e-6 -0.5485071977581,0.235376 -0.5485071977581,0.525515 0,0.380598 0,0.761195 0,1.141793 0,0.294726 0.2381472377581,0.534829 0.5301734177581,0.534829 0.246202,0 0.49240401,0 0.73860601,0 0.2920262,0 0.5301745,-0.240103 0.5301745,-0.534829 v -1.141793 c 0,-0.290006 -0.2462256,-0.525514 -0.5485083,-0.525514 -0.2339795,0 -0.46795895,-2e-6 -0.70193843,-1e-6 z m 2.42951163,0.356899 h 0.5393403 c 0.1377814,0 0.2454008,0.107612 0.2454008,0.245254 v 0.997236 c 0,0.135344 -0.1104541,0.245398 -0.2454008,0.245398 H 2.9780206 c -0.135082,0 -0.2454007,-0.110054 -0.2454007,-0.245398 v -0.997236 c 0,-0.137786 0.1077538,-0.245254 0.2454007,-0.245254 z m -2.36609544,1.54e-4 c 0.19185251,0 0.38370503,0 0.57555754,0 0.1201031,0 0.2222583,0.102287 0.2222583,0.222262 0,0.347538 0,0.695076 0,1.042614 0,0.123073 -0.099456,0.223155 -0.2222583,0.223155 -0.19325499,0 -0.38650998,0 -0.57976497,0 -0.12307227,0 -0.21895167,-0.09788 -0.21895167,-0.223155 0,-0.347538 0,-0.937627 0,-1.042614 0,-0.122263 0.10035871,-0.222262 0.2231591,-0.222262 z m 5.28385294,0 c 0.1222628,0 0.2175994,0.09613 0.2175994,0.218507 V 17.43757 H 5.0835364 c 0,0 1.539e-4,-0.246767 1.539e-4,-0.353892 0,-0.122396 0.1119,-0.218507 0.2356619,-0.218507 z" />
</svg>
