<?xml version="1.0" encoding="utf-8"?>
<svg xmlns="http://www.w3.org/2000/svg" viewBox="0 0 24 24" version="1.1">
  <path fill="none" d="M0 0h24v24H0z"/>
  <path d="m 17.881695,6.849465 c -1.010769,0 -1.989226,0.29033 -2.860215,0.78495 -0.84946,0.48387 -1.591399,1.13975 -2.247274,1.86024 -0.258066,0.27957 -0.505376,0.58065 -0.752686,0.8817 -0.236554,0.29033 -0.451614,0.5914 -0.677413,0.8925 -0.107521,0.15054 -0.225807,0.31183 -0.333329,0.46237 -0.225807,0.31182 -0.451614,0.6129 -0.698924,0.8925 -0.236555,0.25806 -0.483873,0.50537 -0.731183,0.75268 -0.623653,0.6129 -1.290328,1.18277 -2.0322488,1.65593 -0.5806475,0.36559 -1.2688165,0.72043 -1.9785143,0.72043 -1.9031808,0 -3.6021357,-1.50535 -3.6021357,-3.79565 0,-2.2903 1.634421,-3.5376 3.6021357,-3.5376 1.1397486,0 2.1398052,0.48387 3.1182631,1.32255 l -0.5268783,0.53763 1.2795283,0.32259 1.279528,0.32258 -0.35484,-1.26882 -0.35484,-1.26882 -0.569892,0.5914 C 8.440808,8.086125 7.2042148,7.365715 5.6451273,7.365715 3.0967826,7.365715 1,9.204445 1,12.010845 c 0,2.68812 2.0967826,4.64512 4.4516132,4.64512 0.9784576,0 1.9246921,-0.29032 2.7526583,-0.78494 0.7526855,-0.44086 1.4085965,-1.02148 2.0107375,-1.65593 0.204296,-0.21505 0.397845,-0.43011 0.591394,-0.64517 0.258066,-0.27956 0.49462,-0.55913 0.709672,-0.8817 0.09677,-0.13978 0.182793,-0.27956 0.279568,-0.41935 0.172038,-0.25807 0.333329,-0.51613 0.516131,-0.76344 0.344084,-0.46237 0.698924,-0.91402 1.075302,-1.34407 0.645155,-0.72042 1.376373,-1.38708 2.225763,-1.83873 0.677413,-0.36559 1.430107,-0.55914 2.204251,-0.55914 2.688125,0 4.193566,1.87096 4.193566,4.25801 0,2.22577 -1.44082,4.0645 -3.924718,4.0645 -1.419308,0 -2.666701,-0.3871 -3.978452,-1.51615 l 0.612906,-0.74193 -1.30104,-0.21505 -1.30104,-0.21505 0.462362,1.23659 0.462362,1.23659 0.516131,-0.62365 c 1.268816,1.15055 2.655901,1.90318 4.462325,1.90318 3.010706,0 4.978508,-2.2903 4.978508,-5.17202 -0.01075,-3.03222 -2.04296,-5.129 -5.118288,-5.129 z"/>
</svg>
