<svg xmlns="http://www.w3.org/2000/svg" width="256" height="256"><path fill="#73ba25" d="M0 0h256v256H0z"/><path fill="#d1d1d1" d="M240 202.716l-62.11 24.103V29.18l10.124 14.46v81.937l48.464 25.59zM138.664 128.616v-69.79l-8.857-14.963v86.526zM90.603 138.232v-65.6l-8.857-14.461-.023 81.839z"/><path fill="#cecece" d="M144.991 127.35l-11.388 2.28-3.796.759V43.642l-24.042 14.462V135.2l-10.123 2.025-11.388 2.277-2.53.508V58.104L57.68 72.564v72.255l-31.966 6.35L16 202.716l68.254 10.162 72.046 10.727 21.59 3.214V29.18l-24.041 14.46v81.937z"/><path fill="#fff" d="M16 202.716l161.89 24.103V29.18l-24.041 14.46v81.937l-24.042 4.811V43.642l-24.042 14.462V135.2l-24.042 4.81V58.104l-24.042 14.46v72.255l-31.966 6.35z"/></svg>