<svg xmlns="http://www.w3.org/2000/svg" width="16" height="16"><path fill="#fff" d="M0 0h16v16H0z"/><path fill="#5e991e" d="M11.541 7.498V.97L12.263 2v5.841l3.455 1.824.25 3.675-4.427 1.718V7.842zM8.745 3.082l-.632-1.066v6.168l.632-.126zM5.318 4.067l-.631-1.031-.002 5.834.633-.127z"/><path fill="#73ba25" d="M0 13.34l4.866.725 5.136.764 1.539.23V.968L9.827 2v5.841l-.631.127-.812.162-.27.054V2L6.398 3.031v5.496l-.721.144-.812.163-.18.036V3.031L2.97 4.061v5.152l-2.278.452z"/><path fill="#73ba25" d="M4.685 8.87V3.031l-1.714 1.03v5.152l-2.278.452L0 13.34l11.541 1.718V.97L9.827 2v5.841l-1.714.343V2L6.4 3.031v5.496z"/></svg>