<svg xmlns="http://www.w3.org/2000/svg" width="256" height="256"><path fill="#73ba25" d="M0 0h256v256H0z"/><path d="M48 32c-17.728 0-32 14.272-32 32v112c0 17.728 14.272 32 32 32h8v32l56-32h96c17.728 0 32-14.272 32-32V64c0-17.728-14.272-32-32-32H48z" fill="#fff"/><path d="M41.756 58.58l-.485.135-.183.44s-.234 12.595-.27 14.003c-1.285-.432-4.565-1.478-8.818-2.754v106.39c5.759-.639 12.853.159 20.88 1.065 6.283.734 13.435 1.556 20.839 1.721 20.673.131 42.941-3.688 56.666-9.691 8.879-3.86 14.545-6.428 18.095-9.657 1.277-1.058 1.94-2.776 2.63-4.625l.484-1.218c.574-1.499 1.418-4.655 1.789-6.385.149-.762.236-1.569-.307-1.996l-1.9.353c-6.027 3.628-21.091 10.496-35.176 10.79-17.488.352-52.694-17.587-56.365-19.495l-.354-.408c-.865-2.114-6.15-14.607-7.281-17.248 25.35 16.703 46.377 25.936 62.473 27.36 17.917 1.595 31.882-8.183 37.847-12.364h.002c1.181-.78 2.049-1.426 2.414-1.57l.393-.615c-.999-6.282-10.361-36.74-17.443-44.065-1.952-1.995-3.514-3.961-6.678-5.812-25.621-14.93-86.405-23.942-89.252-24.354zm66.662 25.723c.431-.007.865-.004 1.299.01 14.327.512 25.583 12.606 25.092 26.917-.27 6.944-3.177 13.389-8.24 18.1-5.08 4.77-11.691 7.22-18.67 6.986-14.312-.527-25.558-12.593-25.079-26.918.258-6.943 3.165-13.386 8.242-18.113 4.762-4.446 10.884-6.878 17.356-6.982zm1.08 7.67c-4.86-.175-9.47 1.54-12.992 4.843-3.522 3.303-5.6 7.778-5.746 12.623-.337 10.013 7.503 18.437 17.492 18.805 4.858.147 9.489-1.572 13.031-4.875 3.537-3.318 5.572-7.794 5.727-12.621.337-10.01-7.5-18.42-17.512-18.775zm2.965 9.101c4.448 0 8.053 2.395 8.053 5.373 0 2.95-3.607 5.358-8.053 5.358-4.449 0-8.043-2.407-8.043-5.358 0-2.978 3.594-5.373 8.043-5.373z" clip-rule="evenodd" fill="#73ba25" fill-rule="evenodd"/></svg>