<svg xmlns="http://www.w3.org/2000/svg" width="256" height="256"><path fill="#73ba25" d="M0 0h256v256H0z"/><g fill="#ff0" stroke-width="8" stroke-linecap="square" fill-rule="evenodd"><path d="M128 88v152l111.2-37.067v-152z" fill="#fff" fill-opacity=".292"/><path d="M16 50.667L128 88l111.2-37.067-112-37.333z" fill="#fff" fill-opacity=".583"/><path d="M16 50.667L128 88v152L16 202.667z" fill="#000" fill-opacity=".157"/></g><path d="M16 88.084v75.088c1.359 2.102 2.604 4.508 3.7 7.28 2.906 7.326 4.384 10.721 5.175 12.286l.285.52.361.537c.317.35 13.567 13.14 13.567 13.14l.353.036.125-.336c-.063-.157-5.497-16.416-.052-26.34 4.32-7.91 10.735-4.817 19.613-.545 2.894 1.406 6.192 3.001 9.72 4.322 9.907 3.531 21.24 5.433 28.839 4.852 4.911-.364 8.064-.647 10.31-1.602.79-.294 1.398-1.009 2.04-1.781l.437-.504c.527-.623 1.461-1.997 1.93-2.766.199-.34.376-.713.187-1.01l-.97-.15c-3.504.731-11.892 1.503-18.706-.718-8.458-2.765-22.356-17.285-23.799-18.817l-.101-.256c-.061-1.16-.504-8.047-.604-9.506 9.373 12.275 17.923 20.236 25.414 23.62 8.338 3.772 16.684 1.419 20.25.412.699-.177 1.222-.34 1.422-.348l.293-.23c.574-3.185 1.186-19.383-.986-24.088-.603-1.286-1.022-2.493-2.23-3.912-9.8-11.468-37.482-25.993-38.78-26.668l-.254-.016-.162.18s-2.225 6.01-2.479 6.68c-2.63-2.043-21.86-16.613-41.93-24.415-3.897-1.517-8.2-3.26-12.968-4.945zm81.027 45.373a13.358 13.358 0 0 1 5.088.902c6.795 2.65 10.172 10.347 7.535 17.137-1.294 3.29-3.771 5.896-6.994 7.309-3.24 1.439-6.826 1.508-10.138.224-6.785-2.654-10.16-10.336-7.528-17.134 1.289-3.292 3.765-5.899 6.996-7.317a13.157 13.157 0 0 1 5.041-1.121zm.15 3.906a9.099 9.099 0 0 0-3.503.785c-2.246.996-3.994 2.796-4.877 5.098-1.842 4.752.51 10.112 5.246 11.965 2.308.885 4.82.838 7.076-.154a9.149 9.149 0 0 0 4.867-5.102c1.841-4.75-.513-10.105-5.261-11.955a9.21 9.21 0 0 0-3.547-.637zm1.87 5.182a5.906 5.906 0 0 1 1.576.324c2.136.746 3.465 2.501 2.965 3.932-.495 1.417-2.63 1.968-4.766 1.222s-3.458-2.506-2.963-3.923c.375-1.073 1.665-1.649 3.188-1.555zM239.2 83.465c-13.55 3.037-29.169 9.15-46.589 22.053l-.982.736c-15.618 11.724-25.915 25.409-30.598 40.676-1.467 4.804-3.077 15.493.266 25.134 1.445 4.216 3.82 8.372 6.851 12.014 6.853 8.23 17.584 13.156 28.682 13.186 15.672.046 26.845-7.958 29.902-21.399 2.1-9.273-1.923-22.264-13.546-28.064-9.455-4.722-19.005-2.637-24.286 1.553-4.58 3.641-6.896 8.884-6.373 14.378.956 9.744 9.804 14.202 15.846 13.696 1.755-.152 3.49-.609 5.422-1.428a8.605 8.605 0 0 0 2.027-1.12l.217-.153.137-.11-.047.033c1.295-1.057 1.993-2.652 1.851-4.289a5.033 5.033 0 0 0-.308-1.34c-.927-2.408-3.496-3.69-5.984-3.011l-.336.111-.448.182-.652.289c-1.361.462-2.4.582-2.623.61-.711.015-4.276-.727-4.606-4.536l-.005-.053c-.121-1.398.354-2.429.617-2.992.935-1.79 3.755-3.71 7.787-3.707 5.29 0 9.309 2.367 12.256 7.23 2.736 4.523 2.629 10.386-.291 14.926-2.902 4.5-8.561 6.793-16.366 6.63-7.871-.19-14.848-4.105-19.144-10.77-4.203-6.516-5.102-14.594-2.34-21.098 6.605-15.583 21.528-16.716 29.824-16.01 12.278 1.053 27.004 11.022 32.998 23.485.329.675.595 1.292.84 1.886V83.465z" clip-rule="evenodd" fill="#fff" fill-rule="evenodd"/></svg>