<svg xmlns="http://www.w3.org/2000/svg" width="256" height="256"><path fill="#73ba25" d="M0 0h256v256H0z"/><path d="M119.99 30.527a9.102 9.102 0 0 0 .67 7.02c1.16 2.166 3.084 3.776 5.446 4.486 4.875 1.484 10.046-1.259 11.542-6.119.712-2.367.478-4.87-.679-7.045a9.149 9.149 0 0 0-5.448-4.475c-4.874-1.484-10.039 1.26-11.532 6.133zm10.136 1.154c-.586 2.186-2.242 3.635-3.692 3.246-1.463-.392-2.167-2.473-1.581-4.66.586-2.185 2.237-3.64 3.7-3.249 1.45.389 2.158 2.478 1.573 4.663zm16.643-16.532c-.228-.683-.431-1.195-.454-1.393l-.25-.275c-3.219-.336-19.418.254-23.95 2.77-1.237.696-2.409 1.205-3.735 2.516-10.71 10.624-23.14 39.305-23.717 40.65l.002.255.192.148s6.158 1.773 6.845 1.976c-1.842 2.776-14.946 23.031-21.237 43.625-5.343 17.462-14.501 42.523-2.7 82.145l.357 1.174c5.695 18.68 15.046 33.029 27.8 42.637 4.016 3.018 13.519 8.175 23.722 8.32 4.455.08 9.172-.735 13.63-2.343 10.073-3.635 18.364-12.043 22.176-22.466 5.389-14.717 1.676-27.948-9.916-35.407-8-5.136-21.586-5.784-31.003 3.165-7.664 7.277-8.96 16.963-6.823 23.357 1.861 5.547 6 9.516 11.344 10.898 9.485 2.424 16.693-4.374 18.278-10.227.456-1.702.618-3.49.506-5.585a8.59 8.59 0 0 0-.36-2.285l-.07-.258-.057-.165.015.054c-.551-1.578-1.815-2.778-3.401-3.203a5.009 5.009 0 0 0-1.363-.167c-2.58.05-4.662 2.028-4.873 4.6l-.01.352.016.484.05.71c-.03 1.438-.271 2.455-.321 2.673-.228.674-2.141 3.775-5.834 2.785l-.05-.013c-1.357-.364-2.162-1.162-2.602-1.602-1.363-1.489-2.208-4.793-.83-8.582 1.804-4.974 5.399-7.946 10.976-9.057 5.184-1.03 10.659 1.07 13.931 5.364 3.24 4.262 3.468 10.365.652 17.645-2.861 7.335-8.924 12.56-16.655 14.325-7.558 1.729-15.458-.183-20.63-4.998-12.396-11.523-8.372-25.936-4.878-33.495 5.176-11.183 19.57-21.626 33.33-23.011 2.196-.23 3.879-.197 5.413-.15l2.294.066 10.02-11.516.176-.139.057-.329-.366-.16c-.318.002-.643.121-4.433-.566-3.357-.63-12.503-2.531-15.752-8.263-1.272-2.228-2.11-5.328-2.042-7.58.206-9.253 4.398-19.045 18.123-25.686 7.091-3.442 10.367-5.17 11.87-6.074l.496-.322.509-.4c.325-.342 12.097-14.504 12.097-14.504l.01-.355-.344-.1c-.152.075-15.964 6.7-26.265 2.007-8.209-3.723-5.599-10.35-1.997-19.52 1.187-2.99 2.532-6.396 3.588-10.013 2.787-10.14 3.842-21.586 2.7-29.12-.728-4.871-1.244-7.994-2.363-10.163-.352-.767-1.109-1.318-1.926-1.9l-.536-.399c-.66-.48-2.1-1.31-2.902-1.72-.354-.174-.739-.323-1.02-.112l-.077.98c.989 3.439 2.38 11.746.67 18.706-2.13 8.64-15.58 23.577-17 25.13l-.247.119c-1.153.147-7.987 1.1-9.434 1.307 11.545-10.258 18.85-19.374 21.669-27.095 3.143-8.594.177-16.744-1.092-20.226zm-21.729 30.78c-3.378-1.04-6.162-3.317-7.816-6.434-1.661-3.12-1.993-6.7-.97-10.084 2.139-6.973 9.564-10.912 16.532-8.786 3.376 1.047 6.16 3.323 7.808 6.432 1.675 3.124 2.009 6.695.975 10.094-2.144 6.962-9.554 10.9-16.529 8.778z" clip-rule="evenodd" fill="#fff" fill-rule="evenodd"/><path d="M16 16v224h40v-16H32V32h24V16zM240 240V16h-40v16h24v192h-24v16z" fill="#fff"/></svg>