<svg xmlns="http://www.w3.org/2000/svg" width="16" height="16"><path fill="#fff" d="M0 0h16v16H0z"/><path d="M1.245.525l-.06.014-.022.056S1.135 2.12 1.13 2.29c-.145 3.951-.07 8.42-.07 12.546.471.024.98.077 1.533.14.64.074 1.363.147 2.109.183h1.046c2.318-.057 4.71-.482 6.234-1.148 1.076-.468 1.763-.779 2.194-1.17.154-.128.233-.337.317-.561l.06-.147a6.89 6.89 0 0 0 .217-.775c.018-.092.028-.19-.037-.241l-.232.043c-.73.44-2.555 1.27-4.262 1.306-2.119.043-6.385-2.13-6.83-2.36l-.04-.05c-.105-.256-.746-1.77-.883-2.091 3.072 2.024 5.619 3.143 7.57 3.316 2.17.193 3.862-.99 4.585-1.497.143-.095.248-.173.292-.19l.047-.077c-.12-.76-1.255-4.451-2.113-5.339-.236-.241-.426-.48-.809-.704C8.954 1.665 1.59.574 1.245.524zm8.233 3.117a3.163 3.163 0 0 1 3.04 3.262 3.138 3.138 0 0 1-.999 2.191 3.118 3.118 0 0 1-2.26.848 3.163 3.163 0 0 1-3.04-3.262 3.138 3.138 0 0 1 1-2.195 3.136 3.136 0 0 1 2.259-.844zm-.027.928a2.166 2.166 0 0 0-1.573.587c-.426.4-.678.943-.696 1.53a2.206 2.206 0 0 0 2.12 2.277 2.2 2.2 0 0 0 1.579-.59 2.18 2.18 0 0 0 .694-1.53A2.204 2.204 0 0 0 9.45 4.57zm.36 1.103c.54 0 .975.29.975.652 0 .357-.436.649-.975.649-.539 0-.974-.292-.974-.65 0-.36.435-.65.974-.65z" clip-rule="evenodd" fill="#73ba25" fill-rule="evenodd"/></svg>