<svg xmlns="http://www.w3.org/2000/svg" width="256" height="256"><path fill="#73ba25" d="M0 0h256v256H0z"/><path d="M120.703 56.002c-16.198.078-36.95 2.71-62.379 18.346l-1.002.623C41.37 84.92 30.357 97.19 24.6 111.447c-1.806 4.486-4.236 14.608-1.829 24.133 1.037 4.163 2.97 8.347 5.577 12.092 5.89 8.462 15.777 14.077 26.42 15.025 15.028 1.344 26.407-5.406 30.455-18.045 2.782-8.72-.002-21.515-10.67-28.043-8.678-5.313-18.007-4.104-23.42-.523-4.696 3.113-7.355 7.95-7.309 13.264.109 9.425 8.229 14.434 14.067 14.449 1.695 0 3.398-.295 5.318-.92a8.276 8.276 0 0 0 2.035-.906l.223-.13.14-.093-.046.027c1.33-.906 2.13-2.38 2.13-3.96 0-.432-.061-.87-.185-1.31-.69-2.386-3.047-3.829-5.49-3.384l-.33.078-.448.135-.648.225c-1.344.33-2.349.357-2.565.365-.683-.044-4.045-1.05-4.045-4.73v-.051c0-1.352.543-2.299.842-2.817 1.046-1.639 3.909-3.249 7.776-2.912 5.075.439 8.733 3.041 11.156 7.951 2.25 4.565 1.662 10.178-1.516 14.291-3.156 4.075-8.776 5.809-16.248 5.004-7.535-.833-13.902-5.17-17.47-11.92-3.492-6.598-3.683-14.42-.495-20.43 7.627-14.399 22.035-14.248 29.934-12.882 11.69 2.027 24.988 12.81 29.705 25.261.762 1.985 1.15 3.558 1.488 4.996l.51 2.15 13.207 6.448.172.131.32-.03.059-.38c-.082-.295-.273-.568-.578-4.264-.251-3.28-.763-12.257 3.758-16.707 1.755-1.739 4.429-3.29 6.54-3.787 8.656-2.114 18.806-.657 28.403 10.451 4.968 5.737 7.39 8.354 8.605 9.526l.424.382.5.373c.399.217 16.502 7.635 16.502 7.635l.332-.078.006-.346c-.107-.122-10.208-13.175-8.41-23.923 1.416-8.562 8.231-7.787 17.656-6.723 3.077.36 6.579.763 10.205.844 10.125.064 21.03-1.806 27.752-4.746 4.349-1.89 7.125-3.15 8.864-4.73.625-.52.949-1.36 1.287-2.265l.238-.597c.281-.734.693-2.28.875-3.127.073-.373.116-.77-.15-.979l-.93.174c-2.952 1.777-10.33 5.14-17.229 5.283-8.565.173-25.807-8.612-27.605-9.547l-.172-.199a1468.62 1468.62 0 0 0-3.566-8.447c12.415 8.18 22.712 12.701 30.595 13.398 8.776.782 15.616-4.007 18.537-6.054.58-.382 1.003-.697 1.182-.768l.193-.303c-.489-3.076-5.074-17.992-8.543-21.58-.955-.977-1.721-1.94-3.271-2.847-12.548-7.312-42.317-11.724-43.711-11.926l-.238.064-.088.217s-.115 6.168-.133 6.858c-3.04-1.022-25.143-8.16-45.861-8.88-4.393-.154-9.286-.412-14.686-.386zm94.29 14.728c7.016.251 12.531 6.175 12.29 13.184-.132 3.4-1.557 6.556-4.037 8.863-2.488 2.337-5.724 3.537-9.142 3.422-7.01-.258-12.518-6.168-12.284-13.183.126-3.4 1.55-6.557 4.037-8.871 2.488-2.323 5.732-3.523 9.135-3.415zm-.106 3.752a8.766 8.766 0 0 0-6.364 2.373c-1.724 1.618-2.742 3.81-2.814 6.182-.165 4.904 3.674 9.029 8.566 9.21a8.9 8.9 0 0 0 6.383-2.388 8.807 8.807 0 0 0 2.805-6.181c.165-4.903-3.673-9.022-8.576-9.196zm1.45 4.457c2.18 0 3.946 1.174 3.946 2.633 0 1.445-1.768 2.623-3.945 2.623-2.179 0-3.938-1.178-3.938-2.623 0-1.459 1.76-2.633 3.938-2.633zm-6.57 77.715v.004c-1.66 0-2.913 1.23-2.913 2.862v28.294c0 1.624 1.225 2.848 2.85 2.848h22.546c1.736 0 2.992-1.2 2.992-2.848v-.748c0-1.653-1.256-2.86-2.992-2.86h-18.467v-7.204h13.533c1.733 0 2.99-1.217 2.99-2.863v-.746c0-1.655-1.257-2.856-2.99-2.856h-13.533v-7.418h17.53c1.73 0 2.99-1.194 2.99-2.855v-.748c0-1.655-1.26-2.862-2.99-2.862h-21.545zm-100.474.004c-5.596 0-8.674 4.73-8.674 8v4.2c0 4.816 3.935 7.8 7.584 7.8h12.81c1.615 0 1.954 1.058 1.954 1.95v2.708c0 .288-.06 2.891-1.953 2.891h-17.471c-1.736 0-2.992 1.206-2.992 2.86v.75c0 1.646 1.256 2.847 2.992 2.847h18.42c4.815 0 7.922-3.351 7.922-8.54v-4.53c0-4.874-3.5-7.053-6.977-7.053h-12.605c-1.898 0-2.758-1.423-2.758-2.43v-2.502c0-1.574 1.054-2.486 2.894-2.486h13.954c1.71 0 2.998-1.23 2.998-2.855v-.748c0-1.632-1.31-2.862-3.057-2.862h-15.041zm29.521 0a2.972 2.972 0 0 0-2.998 2.998v22.264c0 5.183 4.08 8.943 9.698 8.943h10.412c5.61 0 9.687-3.758 9.687-8.943v-22.264a2.967 2.967 0 0 0-2.99-2.998h-.95a2.99 2.99 0 0 0-2.986 2.998v21.451c0 1.719-1.402 3.1-3.1 3.1h-9.735a3.1 3.1 0 0 1-3.1-3.1v-21.45a3 3 0 0 0-2.996-2.999h-.942zm41.504 0c-5.593 0-8.68 4.73-8.68 8v4.2c0 4.816 3.943 7.8 7.594 7.8h12.807c1.617 0 1.955 1.058 1.955 1.95v2.708c0 .288-.057 2.891-1.955 2.891h-17.48c-1.729 0-2.99 1.206-2.99 2.86v.75c0 1.646 1.261 2.847 2.99 2.847h18.427c4.817 0 7.938-3.351 7.938-8.54v-4.53c0-4.874-3.51-7.053-6.987-7.053h-12.605c-1.903 0-2.76-1.423-2.76-2.43v-2.502c0-1.574 1.052-2.486 2.893-2.486h13.96c1.708 0 2.991-1.23 2.991-2.855v-.748c0-1.632-1.31-2.862-3.064-2.862h-15.034zM45.404 169.992c-1.99 0-3.489.713-4.693 1.295-.734.352-1.37.654-1.863.654a.587.587 0 0 1-.514-.265l-.459-.877c-.115-.23-.576-.684-1.145-.684h-.681c-.656 0-1.18.59-1.18 1.309v27.058c0 .849.67 1.518 1.518 1.518h.59c.84 0 1.523-.677 1.523-1.518v-8.978c0-.266.172-.553.348-.553.493 0 1.13.289 1.863.625 1.204.554 2.704 1.237 4.693 1.237h.637c3.523 0 5.715-2.014 5.715-5.249v-10.33c0-3.185-2.239-5.24-5.715-5.24h-.637v-.002zm42.98 0c-1.983 0-3.48.711-4.689 1.287-.751.353-1.391.662-1.916.662-.23 0-.325-.027-.504-.337l-.418-.762c-.24-.482-.645-.727-1.195-.727h-.588c-.708 0-1.224.554-1.224 1.309v17.75c0 .84.665 1.515 1.521 1.515h.586c.841 0 1.525-.682 1.525-1.515v-13.43a2.297 2.297 0 0 1 2.288-2.29h5.043a2.296 2.296 0 0 1 2.289 2.29v13.43c0 .84.667 1.515 1.515 1.515h.594c.84 0 1.523-.682 1.523-1.515v-13.94c0-3.185-2.238-5.242-5.716-5.242h-.633zm-26.42.121v.002c-2.825 0-5.118 2.2-5.118 4.91v10.59c0 2.746 2.229 5.074 4.86 5.074h7.12c.88 0 1.516-.609 1.516-1.437v-.467c0-.833-.636-1.431-1.516-1.431h-5.85c-1.639 0-2.503-.806-2.503-2.338v-3.098h10.552c1.698 0 2.7-1.035 2.7-2.79v-4.105c0-2.71-2.297-4.91-5.112-4.91h-6.648zm-43.864.002c-2.826 0-5.125 2.2-5.125 4.91v10.668c0 2.754 2.224 4.998 4.953 4.998h6.9c2.729 0 4.955-2.244 4.955-4.998v-10.668c0-2.71-2.3-4.91-5.125-4.91H18.1zm.591 3.338h5.377c1.123 0 2.078.955 2.078 2.076v9.742c0 1.15-.93 2.084-2.078 2.084h-5.416c-1.15 0-2.045-.913-2.045-2.084v-9.742c0-1.142.937-2.076 2.084-2.076zm22.102 0h5.041a2.264 2.264 0 0 1 2.291 2.291v9.319a2.296 2.296 0 0 1-2.291 2.292h-5.041a2.295 2.295 0 0 1-2.291-2.292v-9.319a2.264 2.264 0 0 1 2.291-2.29zm21.725 0h5.543c1.142 0 2.033.898 2.033 2.041v3.305h-9.621v-3.305c0-1.143.9-2.04 2.045-2.04zm177.736 10.356a2.792 2.792 0 0 0-2.783 2.81c0 1.585 1.247 2.82 2.783 2.82 1.547 0 2.771-1.235 2.771-2.82 0-1.562-1.222-2.81-2.757-2.81h-.014zm0 .437h.014c1.248 0 2.246 1.06 2.246 2.385 0 1.324-.998 2.385-2.246 2.37-1.249 0-2.26-1.045-2.26-2.382 0-1.311 1.01-2.373 2.246-2.373zm-.137.799c-.374 0-.624.038-.887.076v3.133h.5v-1.348h.35c.4 0 .6.15.676.55.062.411.135.7.21.8h.526c-.05-.1-.123-.288-.199-.776-.063-.462-.25-.712-.525-.761v-.026c.336-.1.61-.35.61-.761 0-.302-.1-.515-.288-.65-.187-.138-.497-.237-.973-.237zm-.025.385c.562 0 .762.276.762.55 0 .389-.35.538-.762.538h-.362v-1.061c.087-.014.2-.027.362-.027z" clip-rule="evenodd" fill="#fff" fill-rule="evenodd"/></svg>