<?xml version="1.0" encoding="UTF-8" standalone="no"?>
<!-- Created with Inkscape (http://www.inkscape.org/) -->

<svg
   width="192"
   height="192"
   viewBox="0 0 192 192"
   version="1.1"
   id="svg1"
   xmlns="http://www.w3.org/2000/svg"
   xmlns:svg="http://www.w3.org/2000/svg">
  <defs
     id="defs1" />
  <g
     id="layer1">
    <path
       id="path817"
       d="M 84,0 V 24.304687 C 37.166772,27.415615 0,66.391469 0,114 c 0,43.008 34.992828,78 78,78 33.06602,0 60,-26.934 60,-60 0,-6.5556 -5.44303,-12 -12,-12 v 12 c 0,26.5812 -21.41918,48 -48,48 C 41.478132,180 12,150.522 12,114 12,70.8516 46.850688,36 90,36 h 6 V 12 h 36 c 23.88889,0 36,17.8572 36,36 V 60 H 152.625 C 154.7081,56.449166 156,52.386175 156,48 156,34.8168 145.18376,24 132,24 c -13.18376,0 -24,10.8168 -24,24 0,13.1844 10.81624,24 24,24 h 48 V 48 C 180,24.1428 162.11111,0 132,0 Z m 48,36 c 6.69848,0 12,5.3016 12,12 0,6.6984 -5.30152,12 -12,12 -6.69848,0 -12,-5.3016 -12,-12 0,-6.6984 5.30152,-12 12,-12 z M 84,48 c 0,23.8572 17.88889,48 48,48 h 24 c 6.55552,0 12,-5.4432 12,-12 H 156 132 C 108.11111,84 96,66.1428 96,48 Z m 12,48 c -19.811196,0 -36,16.1892 -36,36 0,16.4976 13.502628,30 30,30 13.18339,0 24,-10.8156 24,-24 0,-9.87 -8.13005,-18 -18,-18 -6.556968,0 -12,5.4444 -12,12 h 12 c 3.384888,0 6,2.6148 6,6 0,6.6996 -5.301192,12 -12,12 -10.012308,0 -18,-7.9872 -18,-18 0,-13.3248 10.674156,-24 24,-24 h 12 c 0,-6.5556 -5.44303,-12 -12,-12 z"
       style="color:#000000;font-style:normal;font-variant:normal;font-weight:normal;font-stretch:normal;font-size:medium;line-height:normal;font-family:sans-serif;font-variant-ligatures:normal;font-variant-position:normal;font-variant-caps:normal;font-variant-numeric:normal;font-variant-alternates:normal;font-feature-settings:normal;text-indent:0;text-align:start;text-decoration:none;text-decoration-line:none;text-decoration-style:solid;text-decoration-color:#000000;letter-spacing:normal;word-spacing:normal;text-transform:none;writing-mode:lr-tb;direction:ltr;text-orientation:mixed;dominant-baseline:auto;baseline-shift:baseline;text-anchor:start;white-space:normal;shape-padding:0;clip-rule:nonzero;display:inline;overflow:visible;visibility:visible;isolation:auto;mix-blend-mode:normal;color-interpolation:sRGB;color-interpolation-filters:linearRGB;solid-color:#000000;solid-opacity:1;vector-effect:none;fill:#42cd42;fill-opacity:1;fill-rule:nonzero;stroke:none;stroke-width:12;stroke-linecap:butt;stroke-linejoin:miter;stroke-miterlimit:4;stroke-dasharray:none;stroke-dashoffset:0;stroke-opacity:1;color-rendering:auto;image-rendering:auto;shape-rendering:auto;text-rendering:auto;enable-background:accumulate" />
  </g>
</svg>
