<?xml version="1.0" encoding="UTF-8" standalone="no"?>
<!-- Created with Inkscape (http://www.inkscape.org/) -->

<svg
   xmlns:dc="http://purl.org/dc/elements/1.1/"
   xmlns:cc="http://creativecommons.org/ns#"
   xmlns:rdf="http://www.w3.org/1999/02/22-rdf-syntax-ns#"
   xmlns:svg="http://www.w3.org/2000/svg"
   xmlns="http://www.w3.org/2000/svg"
   xmlns:sodipodi="http://sodipodi.sourceforge.net/DTD/sodipodi-0.dtd"
   xmlns:inkscape="http://www.inkscape.org/namespaces/inkscape"
   width="16"
   height="16"
   id="svg3030"
   version="1.1"
   inkscape:version="0.92.4 (5da689c313, 2019-01-14)"
   sodipodi:docname="build-16.svg">
  <defs
     id="defs3032" />
  <sodipodi:namedview
     id="base"
     pagecolor="#ffffff"
     bordercolor="#666666"
     borderopacity="1.0"
     inkscape:pageopacity="1"
     inkscape:pageshadow="2"
     inkscape:zoom="1.4"
     inkscape:cx="243.10364"
     inkscape:cy="114.43211"
     inkscape:document-units="px"
     inkscape:current-layer="svg3030"
     showgrid="true"
     fit-margin-top="10"
     fit-margin-left="10"
     fit-margin-right="10"
     fit-margin-bottom="10"
     inkscape:window-width="1920"
     inkscape:window-height="1016"
     inkscape:window-x="0"
     inkscape:window-y="27"
     inkscape:window-maximized="1">
    <inkscape:grid
       type="xygrid"
       id="grid1009" />
  </sodipodi:namedview>
  <metadata
     id="metadata3035">
    <rdf:RDF>
      <cc:Work
         rdf:about="">
        <dc:format>image/svg+xml</dc:format>
        <dc:type
           rdf:resource="http://purl.org/dc/dcmitype/StillImage" />
        <dc:title></dc:title>
      </cc:Work>
    </rdf:RDF>
  </metadata>
  <rect
     style="opacity:1;fill:#ffffff;fill-opacity:1;stroke:none;stroke-width:0.5;stroke-linecap:square;stroke-linejoin:miter;stroke-miterlimit:4;stroke-dasharray:none"
     id="rect1047"
     width="16"
     height="16"
     x="0"
     y="0" />
  <polygon
     style="fill:#5e991e;fill-opacity:1"
     transform="matrix(0.09020655,0,0,0.09020655,-20.21168,-23.865194)"
     id="polygon3"
     points="352,347.686 352,275.305 360,286.733 360,351.486 398.301,371.71 401.084,412.447 352,431.495 352,351.495 " />
  <polygon
     points="321,298.733 314,286.908 314,355.288 321,353.887 "
     id="polygon7"
     style="fill:#5e991e;fill-opacity:1"
     transform="matrix(0.09020655,0,0,0.09020655,-20.21168,-23.865194)" />
  <polygon
     points="283.018,309.644 276.018,298.215 276,362.891 283.018,361.486 "
     id="polygon9"
     style="fill:#5e991e;fill-opacity:1"
     transform="matrix(0.09020655,0,0,0.09020655,-20.21168,-23.865194)" />
  <polygon
     points="224.06,412.447 278,420.478 334.937,428.955 352,431.495 352,375.123 352,351.495 352,347.686 352,275.305 333,286.733 333,351.486 326,352.887 317,354.688 314,355.288 314,286.733 295,298.162 295,359.09 287,360.69 278,362.49 276,362.891 276,298.162 257,309.59 257,366.692 231.738,371.71 "
     id="polygon11"
     style="fill:#73ba25;fill-opacity:1"
     transform="matrix(0.09020655,0,0,0.09020655,-20.21168,-23.865194)" />
  <polygon
     style="fill:#73ba25;fill-opacity:1"
     transform="matrix(0.09020655,0,0,0.09020655,-20.21168,-23.865194)"
     id="polygon13"
     points="276,362.891 276,298.162 257,309.59 257,366.692 231.738,371.71 224.06,412.447 352,431.495 352,351.495 352,347.686 352,275.305 333,286.733 333,351.486 314,355.288 314,286.733 295,298.162 295,359.09 " />
</svg>
