<?xml version="1.0" encoding="UTF-8" standalone="no"?>
<!-- Created with Inkscape (http://www.inkscape.org/) -->

<svg
   xmlns:dc="http://purl.org/dc/elements/1.1/"
   xmlns:cc="http://creativecommons.org/ns#"
   xmlns:rdf="http://www.w3.org/1999/02/22-rdf-syntax-ns#"
   xmlns:svg="http://www.w3.org/2000/svg"
   xmlns="http://www.w3.org/2000/svg"
   xmlns:sodipodi="http://sodipodi.sourceforge.net/DTD/sodipodi-0.dtd"
   xmlns:inkscape="http://www.inkscape.org/namespaces/inkscape"
   width="256"
   height="256"
   id="svg3030"
   version="1.1"
   inkscape:version="0.92.4 (5da689c313, 2019-01-14)"
   sodipodi:docname="software.svg">
  <defs
     id="defs3032">
    <inkscape:perspective
       sodipodi:type="inkscape:persp3d"
       inkscape:vp_x="-128 : 42.666667 : 0"
       inkscape:vp_y="0 : 1000 : 0"
       inkscape:vp_z="128 : 42.666667 : 0"
       inkscape:persp3d-origin="128 : -28.666667 : 1"
       id="perspective1799" />
  </defs>
  <sodipodi:namedview
     id="base"
     pagecolor="#ffffff"
     bordercolor="#666666"
     borderopacity="1.0"
     inkscape:pageopacity="1"
     inkscape:pageshadow="2"
     inkscape:zoom="1.4"
     inkscape:cx="243.10364"
     inkscape:cy="114.43211"
     inkscape:document-units="px"
     inkscape:current-layer="g1801"
     showgrid="true"
     fit-margin-top="10"
     fit-margin-left="10"
     fit-margin-right="10"
     fit-margin-bottom="10"
     inkscape:window-width="1920"
     inkscape:window-height="1016"
     inkscape:window-x="0"
     inkscape:window-y="27"
     inkscape:window-maximized="1">
    <inkscape:grid
       type="xygrid"
       id="grid1009" />
  </sodipodi:namedview>
  <metadata
     id="metadata3035">
    <rdf:RDF>
      <cc:Work
         rdf:about="">
        <dc:format>image/svg+xml</dc:format>
        <dc:type
           rdf:resource="http://purl.org/dc/dcmitype/StillImage" />
        <dc:title></dc:title>
      </cc:Work>
    </rdf:RDF>
  </metadata>
  <rect
     style="opacity:1;fill:#73ba25;fill-opacity:1;stroke:none;stroke-width:8;stroke-linecap:square;stroke-linejoin:miter;stroke-miterlimit:4;stroke-dasharray:none"
     id="rect1047"
     width="256"
     height="256"
     x="0"
     y="0" />
  <g
     id="g1801"
     style="opacity:1;fill:#ffff00;fill-opacity:1;stroke:none;stroke-width:8;stroke-linecap:square;stroke-linejoin:miter;stroke-miterlimit:4;stroke-dasharray:none">
    <path
       d="M 128,87.999997 V 240 l 111.2,-37.06667 v -152 z"
       style="fill:#ffffff;fill-rule:evenodd;stroke:none;stroke-linejoin:round;fill-opacity:0.29166666"
       id="path1825" />
    <path
       d="M 16,50.666663 128,87.999997 239.2,50.93333 127.2,13.599996 Z"
       style="fill:#ffffff;fill-rule:evenodd;stroke:none;stroke-linejoin:round;fill-opacity:0.58333331"
       id="path1823" />
    <path
       d="M 16,50.666663 128,87.999997 V 240 L 16,202.66667 Z"
       style="fill:#000000;fill-rule:evenodd;stroke:none;stroke-linejoin:round;fill-opacity:0.1574074"
       id="path1827" />
  </g>
  <path
     style="clip-rule:evenodd;fill:#ffffff;fill-opacity:1;fill-rule:evenodd;stroke-width:0.74672186"
     d="M 16 88.083984 L 16 163.17188 C 17.358637 165.27372 18.603915 167.68046 19.699219 170.45117 C 22.60558 177.7783 24.084345 181.17336 24.875 182.73828 L 25.160156 183.25781 L 25.521484 183.79492 C 25.837885 184.14405 39.087891 196.93555 39.087891 196.93555 L 39.441406 196.9707 L 39.566406 196.63477 C 39.503236 196.47814 34.068891 180.21927 39.513672 170.29492 C 43.834539 162.38483 50.249445 165.47824 59.126953 169.75 C 62.020652 171.1561 65.319436 172.75108 68.847656 174.07227 C 78.753823 177.60328 90.087252 179.5048 97.685547 178.92383 C 102.59719 178.56001 105.74959 178.27716 107.99609 177.32227 C 108.78682 177.02832 109.39374 176.31301 110.03516 175.54102 L 110.47266 175.03711 C 110.99971 174.41386 111.93406 173.04015 112.40234 172.27148 C 112.60188 171.93057 112.77898 171.55806 112.58984 171.26172 L 111.61914 171.11133 C 108.11623 171.84237 99.72762 172.6144 92.914062 170.39258 C 84.456153 167.62829 70.558316 153.10816 69.115234 151.57617 L 69.013672 151.32031 C 68.952712 150.15962 68.509802 143.27258 68.410156 141.81445 C 77.78287 154.08877 86.333155 162.04984 93.824219 165.43359 C 102.16169 169.20596 110.50815 166.85292 114.07422 165.8457 C 114.77256 165.66925 115.29636 165.5059 115.49609 165.49805 L 115.78906 165.26758 C 116.3631 162.08322 116.9754 145.8853 114.80273 141.17969 C 114.20027 139.89414 113.78129 138.68732 112.57227 137.26758 C 102.77215 125.7998 75.09126 111.27507 73.792969 110.59961 L 73.539062 110.58398 L 73.376953 110.76367 C 73.376953 110.76367 71.151943 116.77309 70.898438 117.44336 C 68.26728 115.4007 49.038914 100.83053 28.96875 93.029297 C 25.071482 91.512308 20.768015 89.768633 16 88.083984 z M 97.027344 133.45703 C 98.742586 133.4215 100.46528 133.72339 102.11523 134.35938 C 108.90976 137.00877 112.28732 144.70551 109.65039 151.49609 C 108.35586 154.7853 105.87858 157.3916 102.65625 158.80469 C 99.41664 160.24365 95.830125 160.3126 92.517578 159.0293 C 85.733022 156.37506 82.357281 148.69344 84.990234 141.89453 C 86.278568 138.60315 88.755199 135.99646 91.986328 134.57812 C 93.603758 133.86544 95.312101 133.49256 97.027344 133.45703 z M 97.177734 137.36328 C 95.983641 137.38819 94.796534 137.65068 93.673828 138.14844 C 91.428345 139.14393 89.680155 140.94384 88.796875 143.24609 C 86.955406 147.99783 89.307516 153.35846 94.042969 155.21094 C 96.351389 156.09636 98.863781 156.04868 101.11914 155.05664 C 103.37462 154.05633 105.10233 152.24737 105.98633 149.95508 C 107.82736 145.20455 105.47336 139.85017 100.72461 138 C 99.572139 137.55027 98.371828 137.33837 97.177734 137.36328 z M 99.046875 142.54492 C 99.554594 142.57624 100.08892 142.68258 100.62305 142.86914 C 102.75948 143.6154 104.08758 145.37028 103.58789 146.80078 C 103.09297 148.21768 100.9575 148.76927 98.822266 148.02344 C 96.685766 147.27717 95.364445 145.51652 95.859375 144.09961 C 96.234135 143.02674 97.523718 142.45097 99.046875 142.54492 z "
     id="Geeko" />
  <path
     style="clip-rule:evenodd;fill:#ffffff;fill-opacity:1;fill-rule:evenodd;stroke-width:0.74672186"
     d="M 239.19922 83.464844 C 225.6497 86.501942 210.03148 92.614627 192.61133 105.51758 L 191.62891 106.25391 C 176.0109 117.97809 165.71378 131.66293 161.03125 146.92969 C 159.56401 151.7336 157.95413 162.42346 161.29688 172.06445 C 162.74178 176.28014 165.11654 180.43603 168.14844 184.07812 C 175.00122 192.30759 185.73157 197.23446 196.83008 197.26367 C 212.50194 197.31037 223.67454 189.30635 226.73242 175.86523 C 228.8321 166.59247 224.80915 153.60139 213.18555 147.80078 C 203.73083 143.07858 194.18149 145.16377 188.90039 149.35352 C 184.31987 152.995 182.00381 158.23827 182.52734 163.73242 C 183.48255 173.47594 192.33051 177.93426 198.37305 177.42773 C 200.12795 177.27601 201.8637 176.81895 203.79492 176 C 204.4835 175.72356 205.12821 175.39832 205.82227 174.88086 L 206.03906 174.72656 L 206.17578 174.61719 L 206.12891 174.65039 C 207.42436 173.59327 208.12189 171.99752 207.98047 170.36133 C 207.94167 169.91512 207.8393 169.46577 207.67188 169.02148 C 206.74472 166.61322 204.17636 165.33062 201.6875 166.00977 L 201.35156 166.12109 L 200.9043 166.30273 L 200.25195 166.5918 C 198.8906 167.05388 197.85135 167.17404 197.62891 167.20117 C 196.91776 167.21667 193.35266 166.47458 193.02344 162.66602 L 193.01758 162.61328 C 192.89667 161.21457 193.37195 160.18408 193.63477 159.62109 C 194.56986 157.83139 197.38998 155.91156 201.42188 155.91406 C 206.71287 155.91416 210.73081 158.2805 213.67773 163.14453 C 216.41375 167.66663 216.30686 173.52992 213.38672 178.07031 C 210.48536 182.56963 204.82558 184.86334 197.02148 184.69922 C 189.14963 184.51072 182.17317 180.595 177.87695 173.92969 C 173.67379 167.41407 172.77531 159.33566 175.53711 152.83203 C 182.14178 137.24926 197.06467 136.11575 205.36133 136.82227 C 217.63927 137.87477 232.3645 147.84387 238.35938 160.30664 C 238.68763 160.98166 238.9545 161.5988 239.19922 162.19336 L 239.19922 83.464844 z "
     id="path1815" />
</svg>
