<?xml version="1.0" encoding="UTF-8" standalone="no"?>
<!-- Created with Inkscape (http://www.inkscape.org/) -->

<svg
   xmlns:dc="http://purl.org/dc/elements/1.1/"
   xmlns:cc="http://creativecommons.org/ns#"
   xmlns:rdf="http://www.w3.org/1999/02/22-rdf-syntax-ns#"
   xmlns:svg="http://www.w3.org/2000/svg"
   xmlns="http://www.w3.org/2000/svg"
   xmlns:sodipodi="http://sodipodi.sourceforge.net/DTD/sodipodi-0.dtd"
   xmlns:inkscape="http://www.inkscape.org/namespaces/inkscape"
   width="256"
   height="256"
   id="svg3030"
   version="1.1"
   inkscape:version="0.92.4 (5da689c313, 2019-01-14)"
   sodipodi:docname="wiki.svg">
  <defs
     id="defs3032" />
  <sodipodi:namedview
     id="base"
     pagecolor="#ffffff"
     bordercolor="#666666"
     borderopacity="1.0"
     inkscape:pageopacity="1"
     inkscape:pageshadow="2"
     inkscape:zoom="1.4"
     inkscape:cx="243.10364"
     inkscape:cy="114.43211"
     inkscape:document-units="px"
     inkscape:current-layer="svg3030"
     showgrid="true"
     fit-margin-top="10"
     fit-margin-left="10"
     fit-margin-right="10"
     fit-margin-bottom="10"
     inkscape:window-width="1920"
     inkscape:window-height="1016"
     inkscape:window-x="0"
     inkscape:window-y="27"
     inkscape:window-maximized="1">
    <inkscape:grid
       type="xygrid"
       id="grid1009" />
  </sodipodi:namedview>
  <metadata
     id="metadata3035">
    <rdf:RDF>
      <cc:Work
         rdf:about="">
        <dc:format>image/svg+xml</dc:format>
        <dc:type
           rdf:resource="http://purl.org/dc/dcmitype/StillImage" />
        <dc:title />
      </cc:Work>
    </rdf:RDF>
  </metadata>
  <rect
     style="opacity:1;fill:#73ba25;fill-opacity:1;stroke:none;stroke-width:8;stroke-linecap:square;stroke-linejoin:miter;stroke-miterlimit:4;stroke-dasharray:none"
     id="rect1047"
     width="256"
     height="256"
     x="0"
     y="0" />
  <path
     d="m 119.98939,30.526568 c -0.72598,2.36532 -0.48896,4.855786 0.67038,7.021163 1.15932,2.165448 3.08437,3.775459 5.4458,4.485511 4.87527,1.483896 10.04655,-1.259012 11.54262,-6.118837 0.71173,-2.36774 0.47774,-4.869608 -0.67887,-7.045155 -1.16488,-2.175054 -3.09697,-3.76384 -5.44853,-4.475342 -4.874,-1.483556 -10.0386,1.259745 -11.5314,6.13266 z m 10.13619,1.154012 c -0.58573,2.185975 -2.24171,3.635027 -3.69143,3.24658 -1.46362,-0.392181 -2.16689,-2.47339 -1.58117,-4.659365 0.58572,-2.185906 2.23672,-3.641701 3.70035,-3.249521 1.44972,0.388448 2.15763,2.477627 1.57225,4.662306 z m 16.64307,-16.531645 c -0.22772,-0.683335 -0.431,-1.19476 -0.45368,-1.393348 l -0.2505,-0.27453 c -3.21816,-0.336235 -19.41738,0.254337 -23.94884,2.770088 -1.23732,0.696173 -2.40954,1.205079 -3.73568,2.516082 -10.70917,10.623838 -23.139604,39.304589 -23.716888,40.649415 l 0.0021,0.255425 0.192242,0.147831 c 0,0 6.157627,1.773314 6.844857,1.976396 -1.841909,2.775441 -14.946077,23.030711 -21.236945,43.624296 -5.343279,17.46194 -14.501711,42.52344 -2.699626,82.14579 l 0.356706,1.17345 c 5.695003,18.68009 15.045345,33.02877 27.799955,42.63712 4.01552,3.01758 13.51826,8.17516 23.72128,8.32076 4.45572,0.0794 9.17268,-0.73525 13.63042,-2.34331 10.07316,-3.63539 18.36373,-12.04371 22.1762,-22.4669 5.38858,-14.7164 1.67604,-27.94761 -9.91644,-35.40607 -8.00076,-5.13617 -21.58625,-5.78402 -31.00321,3.16451 -7.6635,7.27745 -8.95994,16.96334 -6.82244,23.35671 1.86105,5.54778 6.00006,9.51631 11.34338,10.89787 9.48516,2.42497 16.69366,-4.37377 18.27823,-10.22682 0.45589,-1.70141 0.61781,-3.48979 0.50661,-5.58452 -0.025,-0.74159 -0.11149,-1.45618 -0.36122,-2.2851 l -0.0701,-0.25772 -0.0559,-0.16553 0.0153,0.0544 c -0.55195,-1.5783 -1.81551,-2.77783 -3.40185,-3.20289 -0.43263,-0.11592 -0.88782,-0.17295 -1.36258,-0.16711 -2.58008,0.0503 -4.66238,2.02773 -4.87275,4.599 l -0.0104,0.35244 0.0166,0.48446 0.0497,0.71022 c -0.0299,1.43731 -0.27129,2.45461 -0.32165,2.67296 -0.22801,0.67378 -2.14081,3.77454 -5.8334,2.78511 l -0.0506,-0.0136 c -1.3561,-0.36336 -2.16163,-1.16225 -2.60123,-1.60132 -1.36352,-1.4894 -2.20826,-4.79346 -0.83089,-8.58278 1.80454,-4.97377 5.39921,-7.94523 10.97666,-9.05668 5.18408,-1.02977 10.6589,1.07042 13.93121,5.36394 3.24012,4.26187 3.46785,10.36453 0.65207,17.6448 -2.86179,7.33566 -8.92427,12.55955 -16.65517,14.32509 -7.55843,1.72911 -15.45778,-0.18281 -20.62963,-4.99753 -12.39614,-11.52303 -8.37265,-25.93674 -4.87903,-33.49506 5.17665,-11.18292 19.57011,-21.62625 33.33022,-23.01147 2.19586,-0.23053 3.879,-0.19714 5.41356,-0.15068 l 2.2938,0.0669 10.01958,-11.51636 0.17675,-0.13836 0.057,-0.32912 -0.36638,-0.1608 c -0.31805,0.003 -0.6428,0.12203 -4.43261,-0.56539 -3.35777,-0.62983 -12.50324,-2.53125 -15.75232,-8.26255 -1.27261,-2.22835 -2.11093,-5.3287 -2.04171,-7.58111 0.20553,-9.25277 4.3978,-19.04403 18.12244,-25.68584 7.09133,-3.4419 10.36739,-5.16869 11.86935,-6.07325 l 0.49708,-0.32232 0.50867,-0.40059 c 0.32469,-0.34143 12.09727,-14.503833 12.09727,-14.503833 l 0.009,-0.354008 -0.34342,-0.09974 c -0.15152,0.07466 -15.96366,6.699427 -26.26458,2.005869 -8.20882,-3.722171 -5.59909,-10.349841 -1.99768,-19.519783 1.18758,-2.99003 2.53275,-6.396117 3.58857,-10.012622 2.78641,-10.140815 3.84237,-21.585942 2.69935,-29.120199 -0.7272,-4.871113 -1.24363,-7.993743 -2.36254,-10.163211 -0.35181,-0.766753 -1.10845,-1.31799 -1.92589,-1.900366 l -0.53592,-0.39847 c -0.66064,-0.479369 -2.10037,-1.309885 -2.90165,-1.719863 -0.35478,-0.173686 -0.73922,-0.322766 -1.02071,-0.112163 l -0.0769,0.980057 c 0.98888,3.439026 2.38038,11.746205 0.67013,18.705801 -2.12923,8.639666 -15.57918,23.576914 -16.99991,25.129664 l -0.24757,0.119446 c -1.15298,0.146898 -7.98674,1.099369 -9.43345,1.306907 11.54519,-10.257437 18.84985,-19.373371 21.66858,-27.094809 3.14346,-8.594337 0.17779,-16.744455 -1.09122,-20.225982 z M 125.04,45.929064 c -3.37788,-1.040619 -6.16153,-3.317235 -7.81566,-6.434251 -1.66141,-3.120204 -1.99322,-6.699031 -0.96957,-10.084195 2.13805,-6.972362 9.56338,-10.91184 16.53087,-8.785929 3.37618,1.046967 6.15983,3.323587 7.80807,6.432222 1.67532,3.123932 2.00917,6.695186 0.97513,10.093801 -2.14362,6.962757 -9.55335,10.899683 -16.52884,8.778352 z"
     id="Geeko"
     style="clip-rule:evenodd;fill:#ffffff;fill-opacity:1;fill-rule:evenodd;stroke-width:0.74672186"
     inkscape:connector-curvature="0" />
  <path
     style="opacity:1;fill:#ffffff;fill-opacity:1;stroke:none;stroke-width:8;stroke-linecap:square;stroke-linejoin:miter;stroke-miterlimit:4;stroke-dasharray:none"
     d="M 16,16 V 240 H 56 V 224 H 32 V 32 H 56 V 16 Z"
     id="rect1773"
     inkscape:connector-curvature="0"
     sodipodi:nodetypes="ccccccccc" />
  <path
     id="path1778"
     d="M 240,240 V 16 h -40 v 16 h 24 v 192 h -24 v 16 z"
     style="opacity:1;fill:#ffffff;fill-opacity:1;stroke:none;stroke-width:8;stroke-linecap:square;stroke-linejoin:miter;stroke-miterlimit:4;stroke-dasharray:none"
     inkscape:connector-curvature="0"
     sodipodi:nodetypes="ccccccccc" />
</svg>
