<?xml version="1.0" encoding="UTF-8" standalone="no"?>
<!-- Created with Inkscape (http://www.inkscape.org/) -->

<svg
   xmlns:dc="http://purl.org/dc/elements/1.1/"
   xmlns:cc="http://creativecommons.org/ns#"
   xmlns:rdf="http://www.w3.org/1999/02/22-rdf-syntax-ns#"
   xmlns:svg="http://www.w3.org/2000/svg"
   xmlns="http://www.w3.org/2000/svg"
   xmlns:sodipodi="http://sodipodi.sourceforge.net/DTD/sodipodi-0.dtd"
   xmlns:inkscape="http://www.inkscape.org/namespaces/inkscape"
   width="16"
   height="16"
   id="svg3030"
   version="1.1"
   inkscape:version="0.92.4 (5da689c313, 2019-01-14)"
   sodipodi:docname="www-16.svg">
  <defs
     id="defs3032" />
  <sodipodi:namedview
     id="base"
     pagecolor="#ffffff"
     bordercolor="#666666"
     borderopacity="1.0"
     inkscape:pageopacity="1"
     inkscape:pageshadow="2"
     inkscape:zoom="1.4"
     inkscape:cx="243.10364"
     inkscape:cy="114.43211"
     inkscape:document-units="px"
     inkscape:current-layer="svg3030"
     showgrid="true"
     fit-margin-top="10"
     fit-margin-left="10"
     fit-margin-right="10"
     fit-margin-bottom="10"
     inkscape:window-width="1920"
     inkscape:window-height="1016"
     inkscape:window-x="0"
     inkscape:window-y="27"
     inkscape:window-maximized="1"
     inkscape:snap-global="false">
    <inkscape:grid
       type="xygrid"
       id="grid1009" />
  </sodipodi:namedview>
  <metadata
     id="metadata3035">
    <rdf:RDF>
      <cc:Work
         rdf:about="">
        <dc:format>image/svg+xml</dc:format>
        <dc:type
           rdf:resource="http://purl.org/dc/dcmitype/StillImage" />
        <dc:title />
      </cc:Work>
    </rdf:RDF>
  </metadata>
  <rect
     style="opacity:1;fill:#ffffff;fill-opacity:1;stroke:none;stroke-width:0.5;stroke-linecap:square;stroke-linejoin:miter;stroke-miterlimit:4;stroke-dasharray:none"
     id="rect1047"
     width="16"
     height="16"
     x="0"
     y="0" />
  <path
     style="clip-rule:evenodd;fill:#73ba25;fill-opacity:1;fill-rule:evenodd;stroke:none;stroke-width:0.17785737"
     d="m 1.245007,0.52491151 -0.05939,0.0143356 -0.022527,0.0552937 c 0,0 -0.028413,1.52505359 -0.032767,1.69568399 -0.1456404,3.9508586 -0.06963,8.4199742 -0.06963,12.5456042 0.4704269,0.02461 0.97992,0.07694 1.5318499,0.13926 0.640787,0.07485 1.3638071,0.148147 2.109366,0.184313 h 1.046491 c 2.3180164,-0.05709 4.7093891,-0.482005 6.2338921,-1.148887 1.07586,-0.467592 1.763177,-0.778205 2.19333,-1.169368 0.154734,-0.128204 0.233868,-0.337159 0.317429,-0.561131 l 0.05939,-0.147451 c 0.06955,-0.181546 0.17215,-0.564493 0.217081,-0.774117 0.01819,-0.09232 0.02885,-0.189871 -0.03687,-0.241655 l -0.231416,0.04301 c -0.73024,0.439485 -2.555119,1.271021 -4.261737,1.306578 -2.1190101,0.04284 -6.3850154,-2.130113 -6.8298366,-2.361259 l -0.040959,-0.04916 C 3.2638197,9.7999514 2.6229829,8.2850813 2.4860512,7.9650325 c 3.0716326,2.023847 5.6189166,3.1430905 7.5691408,3.3155945 2.17107,0.193401 3.862553,-0.990451 4.58531,-1.4970348 0.143174,-0.094517 0.248598,-0.1729928 0.292854,-0.1904573 l 0.0471,-0.075774 C 14.859441,8.7562371 13.725143,5.0658753 12.866997,4.1784143 12.630558,3.9366649 12.441436,3.6982078 12.058065,3.4739272 8.9536684,1.6650057 1.5899986,0.57482123 1.245007,0.52491151 Z M 9.4776762,3.6418573 C 11.213597,3.7039333 12.578429,5.1701523 12.518848,6.9042059 12.485988,7.7454997 12.133042,8.5246445 11.51946,9.0954885 10.904016,9.6735077 10.104204,9.971718 9.2585479,9.9433309 7.5244903,9.8793836 6.1613896,8.4165943 6.2194233,6.6809818 6.2506944,5.8396854 6.6036425,5.0583194 7.218812,4.4856034 7.8342508,3.9110167 8.6357515,3.6150294 9.4776762,3.6418573 Z M 9.4510527,4.5695684 C 8.8621033,4.5483513 8.3049603,4.7571066 7.8782443,5.1573237 7.4515133,5.5575391 7.1997347,6.1000604 7.1819492,6.6871257 7.1410972,7.9002461 8.0912348,8.9198143 9.3015543,8.9644212 9.8901718,8.9821992 10.451281,8.77483 10.880506,8.374618 11.309101,7.9725324 11.556022,7.4296967 11.574754,6.8448161 11.615604,5.6320076 10.664179,4.6126156 9.4510527,4.5695684 Z M 9.811488,5.6734015 c 0.539017,0 0.974814,0.2903275 0.974814,0.651241 0,0.3574761 -0.436099,0.649193 -0.974814,0.649193 -0.5390322,0 -0.9748136,-0.291717 -0.9748136,-0.649193 0,-0.3609121 0.4357814,-0.651241 0.9748136,-0.651241 z"
     id="Geeko"
     inkscape:connector-curvature="0"
     sodipodi:nodetypes="ccccccccccccccccccccccccccccccccccccccccsssss" />
</svg>
