<?xml version="1.0" encoding="UTF-8" standalone="no"?>
<!-- Created with Inkscape (http://www.inkscape.org/) -->

<svg
   xmlns:dc="http://purl.org/dc/elements/1.1/"
   xmlns:cc="http://creativecommons.org/ns#"
   xmlns:rdf="http://www.w3.org/1999/02/22-rdf-syntax-ns#"
   xmlns:svg="http://www.w3.org/2000/svg"
   xmlns="http://www.w3.org/2000/svg"
   xmlns:sodipodi="http://sodipodi.sourceforge.net/DTD/sodipodi-0.dtd"
   xmlns:inkscape="http://www.inkscape.org/namespaces/inkscape"
   width="256"
   height="256"
   id="svg3030"
   version="1.1"
   inkscape:version="0.92.4 (5da689c313, 2019-01-14)"
   sodipodi:docname="www.svg">
  <defs
     id="defs3032" />
  <sodipodi:namedview
     id="base"
     pagecolor="#ffffff"
     bordercolor="#666666"
     borderopacity="1.0"
     inkscape:pageopacity="1"
     inkscape:pageshadow="2"
     inkscape:zoom="1.4"
     inkscape:cx="243.10364"
     inkscape:cy="114.43211"
     inkscape:document-units="px"
     inkscape:current-layer="svg3030"
     showgrid="true"
     fit-margin-top="10"
     fit-margin-left="10"
     fit-margin-right="10"
     fit-margin-bottom="10"
     inkscape:window-width="1920"
     inkscape:window-height="1016"
     inkscape:window-x="0"
     inkscape:window-y="27"
     inkscape:window-maximized="1">
    <inkscape:grid
       type="xygrid"
       id="grid1009" />
  </sodipodi:namedview>
  <metadata
     id="metadata3035">
    <rdf:RDF>
      <cc:Work
         rdf:about="">
        <dc:format>image/svg+xml</dc:format>
        <dc:type
           rdf:resource="http://purl.org/dc/dcmitype/StillImage" />
        <dc:title />
      </cc:Work>
    </rdf:RDF>
  </metadata>
  <rect
     style="opacity:1;fill:#73ba25;fill-opacity:1;stroke:none;stroke-width:8;stroke-linecap:square;stroke-linejoin:miter;stroke-miterlimit:4;stroke-dasharray:none"
     id="rect1047"
     width="256"
     height="256"
     x="0"
     y="0" />
  <path
     style="clip-rule:evenodd;fill:#ffffff;fill-opacity:1;fill-rule:evenodd;stroke-width:0.7189123;stroke:none"
     d="M 120.70312 56.001953 C 104.50469 56.079556 83.753764 58.711298 58.324219 74.347656 L 57.322266 74.970703 C 41.369746 84.921492 30.356731 97.191885 24.599609 111.44727 C 22.793989 115.93344 20.364494 126.05548 22.771484 135.58008 C 23.80794 139.74347 25.741455 143.92708 28.347656 147.67188 C 34.238423 156.13357 44.124513 161.74909 54.767578 162.69727 C 69.795864 164.04135 81.175252 157.29129 85.222656 144.65234 C 88.005422 135.93216 85.220961 123.13692 74.552734 116.60938 C 65.875463 111.29608 56.545719 112.50507 51.132812 116.08594 C 46.437381 119.19903 43.777561 124.03632 43.824219 129.34961 C 43.932631 138.77461 52.05277 143.78369 57.890625 143.79883 C 59.586467 143.79883 61.288697 143.5043 63.208984 142.87891 C 63.892382 142.67086 64.535509 142.41144 65.244141 141.97266 L 65.466797 141.84375 L 65.607422 141.75 L 65.560547 141.77734 C 66.89075 140.87078 67.691406 139.39754 67.691406 137.81641 C 67.691406 137.3852 67.629583 136.94786 67.505859 136.50781 C 66.816207 134.12099 64.459208 132.67797 62.015625 133.12305 L 61.685547 133.20117 L 61.238281 133.33594 L 60.589844 133.56055 C 59.245766 133.89089 58.240993 133.91822 58.025391 133.92578 C 57.341993 133.88158 53.980469 132.87579 53.980469 129.19531 L 53.980469 129.14453 C 53.980469 127.79288 54.523486 126.84634 54.822266 126.32812 C 55.867564 124.689 58.730555 123.07936 62.597656 123.41602 C 67.672673 123.85479 71.330524 126.45739 73.753906 131.36719 C 76.00331 135.93154 75.415657 141.54524 72.238281 145.6582 C 69.082328 149.73332 63.462177 151.46654 55.990234 150.66211 C 48.455315 149.82867 42.087781 145.49162 38.519531 138.74219 C 35.028134 132.14406 34.836656 124.3218 38.025391 118.3125 C 45.652404 103.91337 60.059576 104.06417 67.958984 105.42969 C 79.648498 107.45717 92.947135 118.24033 97.664062 130.69141 C 98.425607 132.67601 98.813161 134.24885 99.152344 135.6875 L 99.662109 137.83789 L 112.86914 144.28516 L 113.04102 144.41602 L 113.36133 144.38672 L 113.41992 144.00586 C 113.33792 143.71081 113.14691 143.43779 112.8418 139.74219 C 112.59083 136.46267 112.07938 127.48477 116.59961 123.03516 C 118.35476 121.29642 121.02867 119.74483 123.14062 119.24805 C 131.79647 117.13357 141.94649 118.59097 151.54297 129.69922 C 156.51079 135.43618 158.93297 138.05326 160.14844 139.22461 L 160.57227 139.60742 L 161.07227 139.98047 C 161.47069 140.19734 177.57422 147.61523 177.57422 147.61523 L 177.90625 147.53711 L 177.91211 147.19141 C 177.80492 147.06911 167.70395 134.01649 169.50195 123.26758 C 170.91792 114.70628 177.73319 115.48074 187.1582 116.54492 C 190.23471 116.90426 193.73702 117.30797 197.36328 117.38867 C 207.48808 117.45297 218.39354 115.58293 225.11523 112.64258 C 229.46393 110.75254 232.23983 109.49323 233.97852 107.91211 C 234.60391 107.39389 234.92774 106.55375 235.26562 105.64844 L 235.50391 105.05078 C 235.78508 104.31696 236.19731 102.77114 236.37891 101.92383 C 236.45201 101.55062 236.49452 101.15462 236.22852 100.94531 L 235.29883 101.11914 C 232.34712 102.89571 224.96857 106.25861 218.07031 106.40234 C 209.50527 106.57508 192.26284 97.789775 190.46484 96.855469 L 190.29297 96.65625 C 189.86931 95.621073 187.28005 89.502637 186.72656 88.208984 C 199.14232 96.389508 209.43932 100.91016 217.32227 101.60742 C 226.09788 102.38916 232.93794 97.600383 235.85938 95.552734 C 236.4381 95.17069 236.86201 94.85576 237.04102 94.785156 L 237.23438 94.482422 C 236.74516 91.405902 232.16009 76.489515 228.69141 72.902344 C 227.73569 71.92517 226.96953 70.96125 225.41992 70.054688 C 212.87173 62.742903 183.10345 58.330647 181.70898 58.128906 L 181.4707 58.193359 L 181.38281 58.410156 C 181.38281 58.410156 181.26761 64.577883 181.25 65.267578 C 178.21 64.246277 156.10729 57.107369 135.38867 56.388672 C 130.99612 56.234215 126.1026 55.976086 120.70312 56.001953 z M 214.99219 70.730469 C 222.00891 70.981383 227.52403 76.90489 227.2832 83.914062 C 227.15084 87.314633 225.72627 90.469952 223.24609 92.777344 C 220.75844 95.113737 217.52173 96.313958 214.10352 96.199219 C 207.09434 95.940742 201.58573 90.031101 201.82031 83.015625 C 201.94634 79.615055 203.37092 76.459487 205.85742 74.144531 C 208.34507 71.822006 211.58907 70.622035 214.99219 70.730469 z M 214.88672 74.482422 C 212.50618 74.396682 210.24826 75.237772 208.52344 76.855469 C 206.79856 78.473165 205.78087 80.664152 205.70898 83.037109 C 205.54384 87.94063 209.38319 92.065791 214.27539 92.246094 C 216.65463 92.317984 218.92324 91.477072 220.6582 89.859375 C 222.39063 88.234116 223.38719 86.041863 223.46289 83.677734 C 223.62803 78.775472 219.79027 74.65642 214.88672 74.482422 z M 216.33789 78.939453 C 218.51662 78.939453 220.2832 80.113435 220.2832 81.572266 C 220.2832 83.017223 218.5154 84.195312 216.33789 84.195312 C 214.15908 84.195312 212.40039 83.017223 212.40039 81.572266 C 212.40039 80.113435 214.15908 78.939453 216.33789 78.939453 z M 209.76758 156.6543 L 209.76758 156.6582 C 208.10704 156.6582 206.85352 157.88796 206.85352 159.51953 L 206.85352 187.81445 C 206.85352 189.43845 208.0791 190.66211 209.70312 190.66211 L 232.25 190.66211 C 233.98625 190.66211 235.24219 189.46115 235.24219 187.81445 L 235.24219 187.06641 C 235.24219 185.41341 233.98625 184.20508 232.25 184.20508 L 213.7832 184.20508 L 213.7832 177.00195 L 227.31641 177.00195 C 229.04884 177.00195 230.30664 175.78536 230.30664 174.13867 L 230.30664 173.39258 C 230.30664 171.73832 229.04884 170.53711 227.31641 170.53711 L 213.7832 170.53711 L 213.7832 163.11914 L 231.3125 163.11914 C 233.04242 163.11914 234.30273 161.9255 234.30273 160.26367 L 234.30273 159.51562 C 234.30273 157.86136 233.04242 156.6543 231.3125 156.6543 L 209.76758 156.6543 z M 109.29297 156.6582 C 103.69724 156.6582 100.61914 161.3875 100.61914 164.6582 L 100.61914 168.85742 C 100.61914 173.67395 104.55415 176.6582 108.20312 176.6582 L 121.01367 176.6582 C 122.62756 176.6582 122.9668 177.71598 122.9668 178.60742 L 122.9668 181.31641 C 122.9668 181.60389 122.90725 184.20703 121.01367 184.20703 L 103.54297 184.20703 C 101.80673 184.20703 100.55078 185.41341 100.55078 187.06641 L 100.55078 187.81641 C 100.55078 189.4631 101.80673 190.66406 103.54297 190.66406 L 121.96289 190.66406 C 126.77816 190.66406 129.88477 187.31279 129.88477 182.12305 L 129.88477 177.59375 C 129.88477 172.7205 126.38436 170.54102 122.9082 170.54102 L 110.30273 170.54102 C 108.40516 170.54102 107.54492 169.1175 107.54492 168.11133 L 107.54492 165.60938 C 107.54492 164.03455 108.59853 163.12305 110.43945 163.12305 L 124.39258 163.12305 C 126.10359 163.12305 127.39062 161.89284 127.39062 160.26758 L 127.39062 159.51953 C 127.39062 157.88796 126.08151 156.6582 124.33398 156.6582 L 109.29297 156.6582 z M 138.81445 156.6582 C 137.13623 156.6582 135.81641 157.98181 135.81641 159.65625 L 135.81641 181.91992 C 135.81641 187.10335 139.89523 190.86328 145.51367 190.86328 L 155.92578 190.86328 C 161.53667 190.86328 165.61328 187.10462 165.61328 181.91992 L 165.61328 159.65625 C 165.61328 157.98181 164.29876 156.6582 162.62305 156.6582 L 161.67383 156.6582 C 160.01961 156.6582 158.6875 158.00199 158.6875 159.65625 L 158.6875 181.10742 C 158.6875 182.82598 157.28503 184.20703 155.58789 184.20703 L 145.85156 184.20703 C 144.14817 184.20703 142.75195 182.82598 142.75195 181.10742 L 142.75195 159.65625 C 142.75195 158.00199 141.40886 156.6582 139.75586 156.6582 L 138.81445 156.6582 z M 180.31836 156.6582 C 174.72515 156.6582 171.63867 161.3875 171.63867 164.6582 L 171.63867 168.85742 C 171.63867 173.67395 175.58092 176.6582 179.23242 176.6582 L 192.03906 176.6582 C 193.65554 176.6582 193.99414 177.71598 193.99414 178.60742 L 193.99414 181.31641 C 193.99414 181.60389 193.93652 184.20703 192.03906 184.20703 L 174.55859 184.20703 C 172.82996 184.20703 171.56836 185.41341 171.56836 187.06641 L 171.56836 187.81641 C 171.56836 189.4631 172.82996 190.66406 174.55859 190.66406 L 192.98633 190.66406 C 197.8029 190.66406 200.92383 187.31279 200.92383 182.12305 L 200.92383 177.59375 C 200.92383 172.7205 197.41372 170.54102 193.9375 170.54102 L 181.33203 170.54102 C 179.42936 170.54102 178.57227 169.1175 178.57227 168.11133 L 178.57227 165.60938 C 178.57227 164.03455 179.62399 163.12305 181.46484 163.12305 L 195.42578 163.12305 C 197.13298 163.12305 198.41602 161.89284 198.41602 160.26758 L 198.41602 159.51953 C 198.41602 157.88796 197.10664 156.6582 195.35156 156.6582 L 180.31836 156.6582 z M 45.404297 169.99219 C 43.414645 169.99219 41.915067 170.70458 40.710938 171.28711 C 39.977111 171.63889 39.340656 171.94141 38.847656 171.94141 C 38.624482 171.94141 38.434854 171.84096 38.333984 171.67578 L 37.875 170.79883 C 37.760261 170.56809 37.299121 170.11523 36.730469 170.11523 L 36.048828 170.11523 C 35.393176 170.11523 34.869141 170.70513 34.869141 171.42383 L 34.869141 198.48242 C 34.869141 199.33098 35.539415 200 36.386719 200 L 36.976562 200 C 37.817563 200 38.5 199.32342 38.5 198.48242 L 38.5 189.50391 C 38.5 189.23786 38.672395 188.95117 38.847656 188.95117 C 39.340656 188.95117 39.977112 189.23951 40.710938 189.57617 C 41.915067 190.12969 43.414645 190.8125 45.404297 190.8125 L 46.041016 190.8125 C 49.563885 190.8125 51.755859 188.79858 51.755859 185.56445 L 51.755859 175.23438 C 51.755859 172.04942 49.517233 169.99414 46.041016 169.99414 L 45.404297 169.99414 L 45.404297 169.99219 z M 88.384766 169.99219 C 86.401419 169.99219 84.903226 170.70308 83.695312 171.2793 C 82.943834 171.63234 82.303819 171.94141 81.779297 171.94141 C 81.548558 171.94141 81.454434 171.9137 81.275391 171.60352 L 80.857422 170.8418 C 80.617857 170.36015 80.211848 170.11523 79.662109 170.11523 L 79.074219 170.11523 C 78.365611 170.11523 77.849609 170.66857 77.849609 171.42383 L 77.849609 189.17383 C 77.849609 190.01483 78.514964 190.68945 79.371094 190.68945 L 79.957031 190.68945 C 80.798031 190.68945 81.482422 190.00726 81.482422 189.17383 L 81.482422 175.74414 C 81.482422 174.48579 82.511184 173.45313 83.769531 173.45312 L 88.8125 173.45312 C 90.07463 173.45312 91.101562 174.48579 91.101562 175.74414 L 91.101562 189.17383 C 91.101562 190.01483 91.768622 190.68945 92.617188 190.68945 L 93.210938 190.68945 C 94.051937 190.68945 94.734375 190.00726 94.734375 189.17383 L 94.734375 175.23438 C 94.734375 172.04942 92.496316 169.99219 89.017578 169.99219 L 88.384766 169.99219 z M 61.964844 170.11328 L 61.964844 170.11523 C 59.139235 170.11523 56.845703 172.31452 56.845703 175.02539 L 56.845703 185.61523 C 56.845703 188.3614 59.074904 190.68945 61.705078 190.68945 L 68.826172 190.68945 C 69.706259 190.68945 70.341797 190.08034 70.341797 189.25195 L 70.341797 188.78516 C 70.341797 187.95173 69.706259 187.35352 68.826172 187.35352 L 62.976562 187.35352 C 61.337432 187.35352 60.472656 186.54758 60.472656 185.01562 L 60.472656 181.91797 L 71.025391 181.91797 C 72.722522 181.91797 73.724609 180.88278 73.724609 179.12891 L 73.724609 175.02344 C 73.724609 172.31383 71.427542 170.11328 68.613281 170.11328 L 61.964844 170.11328 z M 18.099609 170.11523 C 15.274001 170.11523 12.974609 172.31452 12.974609 175.02539 L 12.974609 185.69336 C 12.974609 188.4471 15.199213 190.69141 17.927734 190.69141 L 24.828125 190.69141 C 27.556647 190.69141 29.783203 188.4471 29.783203 185.69336 L 29.783203 175.02539 C 29.783203 172.31579 27.48255 170.11523 24.658203 170.11523 L 18.099609 170.11523 z M 18.691406 173.45312 L 24.068359 173.45312 C 25.190533 173.45312 26.146484 174.40839 26.146484 175.5293 L 26.146484 185.27148 C 26.146484 186.42139 25.21575 187.35547 24.068359 187.35547 L 18.652344 187.35547 C 17.502431 187.35547 16.607422 186.44156 16.607422 185.27148 L 16.607422 175.5293 C 16.607422 174.38695 17.544015 173.45312 18.691406 173.45312 z M 40.792969 173.45312 L 45.833984 173.45312 C 47.121331 173.45312 48.125 174.45805 48.125 175.74414 L 48.125 185.0625 C 48.125 186.32716 47.094853 187.35547 45.833984 187.35547 L 40.792969 187.35547 C 39.530838 187.35547 38.501953 186.32716 38.501953 185.0625 L 38.501953 175.74414 C 38.501953 174.45679 39.506882 173.45312 40.792969 173.45312 z M 62.517578 173.45312 L 68.060547 173.45312 C 69.202895 173.45312 70.09375 174.35053 70.09375 175.49414 L 70.09375 178.79883 L 60.472656 178.79883 C 60.473956 178.36761 60.472656 175.49414 60.472656 175.49414 C 60.472656 174.35053 61.372709 173.45312 62.517578 173.45312 z M 240.25391 183.80859 C 238.71817 183.80859 237.4707 185.05818 237.4707 186.61914 C 237.4707 188.20405 238.71817 189.43945 240.25391 189.43945 C 241.80099 189.43945 243.02539 188.20405 243.02539 186.61914 C 243.02539 185.05692 241.80332 183.80859 240.26758 183.80859 L 240.25391 183.80859 z M 240.25391 184.24609 L 240.26758 184.24609 C 241.51584 184.24609 242.51367 185.30694 242.51367 186.63086 C 242.51367 187.95477 241.51584 189.01585 240.26758 189.00195 C 239.01932 189.00195 238.00781 187.95566 238.00781 186.61914 C 238.00781 185.30783 239.01826 184.24609 240.25391 184.24609 z M 240.11719 185.04492 C 239.74271 185.04492 239.49273 185.08329 239.23047 185.12109 L 239.23047 188.25391 L 239.73047 188.25391 L 239.73047 186.90625 L 240.08008 186.90625 C 240.47977 186.90625 240.68026 187.05665 240.75586 187.45508 C 240.81765 187.86739 240.8912 188.15626 240.9668 188.25586 L 241.49219 188.25586 C 241.44176 188.15625 241.36867 187.96843 241.29297 187.48047 C 241.22993 187.01773 241.04245 186.76795 240.76758 186.71875 L 240.76758 186.69336 C 241.10423 186.59249 241.37891 186.34269 241.37891 185.93164 C 241.37891 185.6303 241.27771 185.41742 241.08984 185.28125 C 240.90324 185.1438 240.59254 185.04492 240.11719 185.04492 z M 240.0918 185.42969 C 240.65414 185.42969 240.85352 185.7056 240.85352 185.98047 C 240.85352 186.36881 240.5041 186.51758 240.0918 186.51758 L 239.73047 186.51758 L 239.73047 185.45703 C 239.81747 185.44313 239.92914 185.42969 240.0918 185.42969 z "
     id="Geeko" />
</svg>
